<svg id="Layer_1" enable-background="new 0 0 500 500" viewBox="0 0 500 500" xmlns="http://www.w3.org/2000/svg"><path clip-rule="evenodd" d="m76.882 61.635h8.707c3.842 0 6.985 3.143 6.985 6.985v28.374c0 .513-.418.931-.931.931h-20.814c-.513 0-.931-.418-.931-.931v-28.374c-.001-3.842 3.142-6.985 6.984-6.985zm132.633 135.897c4.311 8.622 6.85 18.706 6.989 29.501.003.258-.087.482-.269.666s-.404.277-.663.277h-94.205c-.258 0-.481-.093-.663-.277s-.272-.408-.268-.666c.14-10.796 2.678-20.879 6.989-29.501.162-.323.472-.514.833-.514h80.423c.363-.001.673.191.834.514zm-61.987-42.625h1.37c4.618 0 8.385-3.767 8.385-8.385v-17.49c0-.272-.104-.506-.305-.689-11.369-10.343-4.143-29.641 11.493-29.641s22.862 19.298 11.493 29.641c-.201.183-.305.417-.305.688v17.49c0 4.618 3.767 8.385 8.385 8.385h1.37c10.913 0 19.841 8.929 19.841 19.842v7.367c0 .513-.418.931-.931.931h-79.706c-.513 0-.931-.418-.931-.931v-7.367c0-10.912 8.927-19.841 19.841-19.841zm75.884 273.387c-5.033 6.811-12.851 10.071-24.362 10.071h-35.712c-.513 0-.931-.418-.931-.931v-22.316c0-.513.418-.931.931-.931h7.102c3.858 0 6.986-3.128 6.986-6.986s-3.128-6.985-6.986-6.985h-7.102c-.513 0-.931-.418-.931-.931v-17.831c0-.513.418-.931.931-.931h7.102c3.858 0 6.986-3.128 6.986-6.986s-3.128-6.985-6.986-6.985h-7.102c-.513 0-.931-.418-.931-.931v-17.831c0-.513.418-.931.931-.931h7.102c3.858 0 6.986-3.128 6.986-6.985 0-3.858-3.128-6.985-6.986-6.985h-7.102c-.513 0-.931-.418-.931-.931v-17.831c0-.513.418-.931.931-.931h7.102c3.858 0 6.986-3.128 6.986-6.985s-3.128-6.986-6.986-6.986h-15.019c-3.858 0-6.986 3.128-6.986 6.986v131.227c0 .513-.418.931-.931.931h-9.614c-11.511 0-19.329-3.26-24.362-10.071-19.655-26.597 7.488-62.091 3.618-94.947-4.768-40.461-13.9-54.75-2.149-90.757.127-.39.475-.643.886-.643h105.174c.41 0 .759.253.886.643 11.751 36.008 2.618 50.296-2.149 90.757-3.869 32.852 23.273 68.346 3.618 94.943zm-179.327-159.024c-9.688 0-17.615 7.927-17.615 17.615s7.927 17.615 17.615 17.615h53.296c.285 0 .529-.114.713-.332.183-.218.254-.479.205-.759-2.006-11.519-3.463-21.521-2.872-33.161.013-.265-.073-.497-.255-.689s-.41-.29-.675-.29h-50.412zm198.36 0c-.265 0-.493.098-.675.29s-.269.425-.255.689c.591 11.64-.866 21.642-2.872 33.161-.049.28.021.541.205.759.183.218.428.332.713.332h216.355c9.688 0 17.615-7.927 17.615-17.615s-7.927-17.615-17.615-17.615h-213.471zm214.078 50.132c0-.513-.418-.931-.931-.931h-218.763c-.46 0-.845.327-.919.781-3.098 18.881-3.871 24.059 1.068 44.202 6.096 24.861 14.596 50.236-2.331 73.143-.069.093-.138.186-.207.277-.218.289-.251.652-.09.976s.472.516.833.516h185.774c19.559 0 35.564-16.004 35.564-35.564v-83.4zm-354.771 118.963c.362 0 .673-.193.834-.517.161-.325.126-.689-.093-.978-4.429-5.817-7.51-12.844-8.98-19.96-3.716-17.994 2.199-36.121 6.449-53.457 4.94-20.146 4.166-25.32 1.068-44.202-.074-.454-.459-.781-.919-.781h-55.702c-.513 0-.931.418-.931.931v83.399c0 19.56 16.004 35.564 35.565 35.564h22.709zm196.234-305.156h9.192c.513 0 .931-.418.931-.931v-29.843c0-.257-.092-.478-.274-.659s-.403-.273-.66-.272l-21.365.057c-3.793 0-6.868-3.128-6.868-6.985 0-3.858 3.075-6.985 6.868-6.985l22.298-.059v-.08h36.324c.513 0 .931.418.931.931v43.896c0 .513.418.931.931.931h9.192c15.368 0 27.941 12.574 27.941 27.941v93.218c0 .513-.418.931-.931.931h-111.521c-.513 0-.931-.418-.931-.931v-93.219c0-15.367 12.574-27.941 27.942-27.941zm40.57 52.266c-4.363 0-8.31 1.779-11.157 4.649-.182.183-.404.276-.663.275-.258-.001-.481-.094-.662-.278-9.642-9.802-26.874-3.111-26.874 11.071 0 14.119 14.669 30.183 27.149 35.885.254.116.52.116.774 0 12.48-5.703 27.149-21.767 27.149-35.885.001-8.68-7.036-15.717-15.716-15.717zm93.828 14.347h-33.85c-.513 0-.931.418-.931.931v20.511c0 .513.418.931.931.931h44.915c.511 0 .928-.415.931-.926.023-4.34.186-7.416-.19-11.609-.183-2.044-1.805-4.812-3.322-6.329-.068-.068-.136-.134-.205-.2-.069-.066-.139-.131-.21-.195-.071-.064-.142-.128-.215-.19-.072-.063-.145-.124-.219-.185-.074-.061-.149-.121-.224-.18-.075-.059-.152-.117-.228-.175-.077-.057-.154-.114-.232-.169-.078-.056-.157-.11-.236-.164l-.456-.293c-.02-.013-.037-.023-.058-.035l-.951-.518c-.024-.013-.045-.024-.071-.035l-.736-.323c-.018-.008-.034-.014-.053-.021l-.483-.178c-.027-.01-.05-.017-.077-.024l-1.308-.356c-.052-.014-.097-.022-.15-.028l-2.277-.231c-.034-.008-.062-.009-.095-.009zm-34.781 37.275v17.271c0 .513.418.931.931.931h44.912c.513 0 .931-.418.931-.931v-17.271c0-.513-.418-.931-.931-.931h-44.912c-.513 0-.931.418-.931.931zm-341.98 17.271c0 .513.418.931.931.931h39.922c.449 0 .827-.31.914-.751 2-10.135 5.307-19.99 9.391-30.096.047-.116.068-.223.068-.349v-100.31c0-6.459-5.284-11.744-11.743-11.744h-27.74c-6.459 0-11.743 5.285-11.743 11.744z" fill-rule="evenodd"/></svg>