<svg id="Capa_1" enable-background="new 0 0 511.987 511.987" height="512" viewBox="0 0 511.987 511.987" width="512" xmlns="http://www.w3.org/2000/svg"><g><path d="m445.993 183.987h-61v56h35v80c0 24.91-14.23 46.49-35 57.07v59.39c52.26-12.96 91-60.19 91-116.46v-106c0-16.57-13.43-30-30-30z"/><path d="m355.993 481.987h-1v-300h-121v22c0 15.87-5.63 30.46-15 41.85v170.15c0 8.28-6.72 15-15 15s-15-6.72-15-15v-149.42c-13.558 4.561-28.432 4.564-42 0v149.42c0 8.28-6.72 15-15 15s-15-6.72-15-15v-170.15c-9.37-11.39-15-25.98-15-41.85v-22h-49v300h-1c-8.284 0-15 6.716-15 15s6.716 15 15 15h304c8.284 0 15-6.716 15-15s-6.716-15-15-15zm-95-258c0-8.28 6.72-15 15-15s15 6.72 15 15v192c0 8.28-6.72 15-15 15s-15-6.72-15-15z"/><path d="m84.783 151.987h17.21c16.569 0 30 13.431 30 30v22c0 19.882 16.118 36 36 36 19.827 0 36-16.063 36-36v-22c0-16.569 13.431-30 30-30h73.21c26.323 0 48.344-20.862 48.783-47.18.448-26.885-21.21-48.82-47.993-48.82-.68 0-1.35.01-2.02.05 5.035-19.315-8.784-38.31-28.222-39.934-10.721-.896-20.442 3.488-26.868 10.844-21.202-34.891-71.282-36.104-94.21-2.44-6.8-5.33-15.37-8.52-24.68-8.52-22.09 0-40 17.91-40 40 0 .22 0 .45.01.67-29.579-5.006-56.504 18.085-56.003 48.149.439 26.319 22.461 47.181 48.783 47.181z"/></g></svg>