<svg clip-rule="evenodd" fill-rule="evenodd" height="173.397mm" image-rendering="optimizeQuality" shape-rendering="geometricPrecision" text-rendering="geometricPrecision" viewBox="0 0 173.397 173.397" width="173.397mm" xmlns="http://www.w3.org/2000/svg"><g id="Layer_x0020_1"><g id="_252960600"><path id="_252961920" d="m16.6321 92.4173v13.9599c4.5521 2.321 10.687 4.2526 17.8849 5.6144 7.3391 1.3884 15.7748 2.1775 24.7642 2.1775s17.4251-.7891 24.7642-2.1775c7.1979-1.3618 13.3329-3.2934 17.885-5.6144v-3.8547-10.1052c-3.2076 2.9173-8.0331 4.7702-11.4809 5.8483-9.6949 3.0317-21.0496 4.0606-31.1683 4.0606s-21.4734-1.0289-31.1682-4.0606c-3.4479-1.0781-8.2733-2.931-11.4809-5.8483z"/><path id="_252961536" d="m71.4669 72.8184c-3.8611-.3593-7.9513-.5523-12.1857-.5523-23.5545 0-42.6491 5.9711-42.6491 13.3368 0 7.3656 19.0946 13.3367 42.6491 13.3367s42.6492-5.9711 42.6492-13.3367c0-1.2434-.5442-2.4471-1.5621-3.589-3.9279-4.4065-14.9102-7.8933-28.9014-9.1955z"/><path id="_252961824" d="m84.6672 115.312c-7.5621 1.4306-16.2122 2.2437-25.386 2.2437s-17.8239-.8131-25.386-2.2437c-6.7441-1.2759-12.63-3.0488-17.2631-5.1811v28.5526c4.5521 2.321 10.687 4.2526 17.885 5.6143 7.3391 1.3884 15.7747 2.1775 24.7641 2.1775s17.425-.7891 24.7641-2.1775c7.198-1.3617 13.333-3.2933 17.8851-5.6143 0-13.2648 0-19.7666 0-28.5526-4.633 2.1323-10.519 3.9052-17.2632 5.1811zm5.8753 11.5957v-7.0161c0-.9352.7582-1.6934 1.6934-1.6934s1.6934.7582 1.6934 1.6934v7.0161c0 .9352-.7582 1.6934-1.6934 1.6934s-1.6934-.7582-1.6934-1.6934zm-31.2613-3.0469c9.3463 0 16.9229 3.6484 16.9229 8.1489s-7.5766 8.1488-16.9229 8.1488c-9.3462 0-16.9228-3.6483-16.9228-8.1488s7.5766-8.1489 16.9228-8.1489zm-32.9546 1.778c.9352 0 1.6934.7582 1.6934 1.6934v7.0161c0 .9352-.7582 1.6934-1.6934 1.6934s-1.6934-.7582-1.6934-1.6934v-7.0161c0-.9352.7582-1.6934 1.6934-1.6934z"/><path id="_252962088" d="m84.6671 147.619c-7.5621 1.4306-16.2121 2.2437-25.3859 2.2437s-17.8238-.8131-25.3859-2.2437c-6.7442-1.2758-12.6301-3.0487-17.2632-5.181v10.6777c0 13.0299 85.2983 13.0588 85.2983 0v-5.1415-5.5362c-4.633 2.1323-10.519 3.9052-17.2633 5.181z"/><path id="_252961800" d="m138.977 116.545c-7.5621 1.4306-16.2121 2.2437-25.3859 2.2437-2.0907 0-4.2379-.0474-6.429-.1393-.624-.0262-1.2392-.0555-1.8454-.088v18.5895 10.9999c23.8115 1.032 51.4482-2.1595 51.4482-9.5929v-27.4395c-4.7099 2.2418-10.7864 4.1021-17.7879 5.4266zm6.6817 18.654v-14.0322c0-.9352.7582-1.6934 1.6934-1.6934s1.6934.7582 1.6934 1.6934v14.0322c0 .9352-.7582 1.6934-1.6934 1.6934s-1.6934-.7582-1.6934-1.6934z"/><path id="_252962016" d="m139.063 92.0388c0 6.6345-11.1691 12.0128-24.9471 12.0128-3.0976 0-6.0628-.2722-8.7991-.7693v11.8961c.6625.0375 1.3218.0701 1.9776.0976 1.9803.083 4.0802.1259 6.2968.1259 8.9894 0 17.425-.7891 24.7641-2.1775 7.4783-1.4148 13.8092-3.4447 18.4097-5.8873v-43.5874c-4.6331 2.1323-10.5189 3.9052-17.2631 5.1811-7.5621 1.4306-16.2122 2.2437-25.386 2.2437-9.1739 0-17.8239-.8131-25.386-2.2437-6.7442-1.2759-12.6302-3.0488-17.2632-5.1811v5.6679c.1046.0095.2092.0191.3138.0288 8.7401.8134 24.945 3.3916 31.1156 10.314.3717.4169.7109.8558 1.0101 1.315 3.1163-.6741 6.5719-1.0492 10.2097-1.0492 13.778 0 24.9471 5.3781 24.9471 12.0126z"/><path id="_252961632" d="m71.4669 30.6498v29.346c4.5521 2.321 10.6871 4.2526 17.885 5.6144 7.3391 1.3884 15.7747 2.1775 24.7642 2.1775 8.9894 0 17.4251-.7891 24.7642-2.1775 7.1979-1.3618 13.3328-3.2934 17.8849-5.6144v-29.3461c-3.2076 2.9173-8.033 4.7702-11.4809 5.8483-9.6948 3.0317-21.0495 4.0606-31.1682 4.0606s-21.4734-1.0289-31.1683-4.0605c-3.4478-1.0782-8.2733-2.9309-11.4809-5.8483zm74.1921 23.863v-14.0323c0-.9352.7582-1.6934 1.6934-1.6934s1.6934.7582 1.6934 1.6934v14.0323c0 .9352-.7582 1.6934-1.6934 1.6934s-1.6934-.7582-1.6934-1.6934z"/><path id="_252960744" d="m156.765 23.8353c0-7.3657-19.0946-13.3367-42.6491-13.3367s-42.6492 5.971-42.6492 13.3368c0 7.3656 19.0947 13.3366 42.6492 13.3366s42.6491-5.971 42.6491-13.3367z"/></g></g></svg>