<svg id="Layer_1" enable-background="new 0 0 66 66" height="512" viewBox="0 0 66 66" width="512" xmlns="http://www.w3.org/2000/svg"><g><path d="m64 38v-6h-62v26h62v-6c-3.87 0-7-3.13-7-7s3.13-7 7-7zm-52 7c-2.76 0-5-2.24-5-5s2.24-5 5-5 5 2.24 5 5-2.24 5-5 5zm12 8c-1.66 0-3-1.34-3-3s1.34-3 3-3 3 1.34 3 3-1.34 3-3 3zm12-6c-2.21 0-4-1.79-4-4s1.79-4 4-4 4 1.79 4 4-1.79 4-4 4zm14 8c-1.66 0-3-1.34-3-3s1.34-3 3-3 3 1.34 3 3-1.34 3-3 3z"/><path d="m33 8c-16.25 0-29.57 9.68-30.88 22h59.3zm-14 12c-1.66 0-3-.9-3-2s1.34-2 3-2 3 .9 3 2-1.34 2-3 2zm19 7c-2.21 0-4-.9-4-2s1.79-2 4-2 4 .9 4 2-1.79 2-4 2z"/></g></svg>