<svg id="Layer_1" enable-background="new 0 0 60 60" height="512" viewBox="0 0 60 60" width="512" xmlns="http://www.w3.org/2000/svg"><path d="m14.82 14.47h9.34v5.47h-9.34z"/><path d="m26.16 14.47h7.33v5.47h-7.33z"/><path d="m35.49 14.47h9.34v5.47h-9.34z"/><path d="m24.16 5h-8.34c-.55 0-1 .45-1 1v6.47h9.34z"/><path d="m26.16 5h7.33v7.47h-7.33z"/><path d="m44.83 6c0-.55-.45-1-1-1h-8.34v7.47h9.34z"/><path d="m43.99 35.86c-.86.3-1.93.68-3.35 1.03-1.01.26-1.74.7-2.52 1.18-1.36.82-3.04 1.84-5.81 1.84-.74 0-1.54-.07-2.38-.22l-.53-.09c-1.29-.23-2.06-.36-2.52-.36-.36 0-.6.1-1.76.64l-.19.09c-.56.26-1.24.58-2.1.95-1.89.82-3.82 1.23-5.74 1.23-.83 0-1.59-.08-2.27-.2v12.05c0 .32.15.62.41.81.18.13.38.19.59.19.1 0 .21-.01.31-.04l3.2-1.03 3.2 1.03c.2.06.41.06.61 0l3.2-1.03 3.19 1.03c.2.06.41.06.61 0l3.19-1.03 3.19 1.03c.2.06.42.06.61 0l3.2-1.03 3.19 1.03c.31.09.64.04.9-.15s.41-.49.41-.81v-18.42c-.18.06-.37.12-.59.2z"/><path d="m26.16 26.81 7.33-1.73v-3.14h-7.33z"/><path d="m35.49 24.61 7.65-1.81c.22-.05.45-.08.69-.08.35 0 .68.07 1 .18v-.96h-9.34z"/><path d="m14.82 29.52c.12-.04.23-.09.35-.12l8.99-2.12v-5.34h-9.34z"/><path d="m44.72 25.27c-.2-.41-.67-.63-1.12-.52l-28.01 6.61c-.28.06-.52.25-.66.51l-3 5.84c-.24.47-.07 1.05.38 1.32.12.07 1.96 1.12 4.78 1.12 1.43 0 3.11-.27 4.94-1.06.94-.41 1.66-.75 2.24-1.02 2.18-1.02 2.18-1.02 5.46-.44l.54.09c3.56.62 5.21-.39 6.81-1.36.87-.53 1.78-1.08 3.08-1.41 1.41-.35 2.47-.73 3.33-1.03 1.54-.53 2.31-.81 3.45-.52.38.1.78-.03 1.03-.34.24-.3.29-.72.11-1.07z"/></svg>