<svg height="512" viewBox="0 0 46 56" width="512" xmlns="http://www.w3.org/2000/svg"><g id="Page-1" fill="none" fill-rule="evenodd"><g id="015---Potato-Chips" fill="rgb(0,0,0)" fill-rule="nonzero"><path id="Shape" d="m24 25c-1.0586625.0066821-2.1126771-.1405229-3.129-.437-1.5870247-.4268166-3.2284551-.6165365-4.871-.563-3.585 0-4 2.283-4 4 0 .05.3 5 7 5 3.394 0 4.9-2.864 6.494-5.9.454-.864.914-1.738 1.425-2.553-.9354704.3347365-1.9260773.488469-2.919.453z"/><path id="Shape" d="m31.224 23.005c-1.714.778-2.809 2.838-3.96 5.029-.272.516-.551 1.043-.844 1.566.829578.2848581 1.7031122.4202897 2.58.4 3.462 0 5-3.623 5-5 0-.913-.008-1.941-2.776-1.995z"/><path id="Shape" d="m3.886 54.743h.005c.6718445-.4479544 1.5471555-.4479544 2.219 0l1.335.89c.33603687.2241995.77396313.2241995 1.11 0l1.336-.89c.6718445-.4479544 1.5471555-.4479544 2.219 0l1.335.89c.3360369.2241995.7739631.2241995 1.11 0l1.336-.89c.6718445-.4479544 1.5471555-.4479544 2.219 0l1.335.89c.3360369.2241995.7739631.2241995 1.11 0l1.336-.89c.6718445-.4479544 1.5471555-.4479544 2.219 0l1.335.89c.3360369.2241995.7739631.2241995 1.11 0l1.336-.89c.6718445-.4479544 1.5471555-.4479544 2.219 0l1.335.89c.3360369.2241995.7739631.2241995 1.11 0l1.336-.89c.671435-.4493049 1.547565-.4493049 2.219 0l1.335.89c.3360369.2241995.7739631.2241995 1.11 0l1.336-.89c.6716151-.4475101 1.5463849-.4475101 2.218 0 .1751631.1193814.4021058.1316994.5891614.0319785.1870555-.099721.3033226-.2950072.3018386-.5069785l.000014-2.268h-40.00001433l.00000033 2.268c-.00022585.2102845.11534554.4036125.30067614.5029715.18533059.0993589.41031251.0886075.58532386-.0279715z"/><path id="Shape" d="m7.684.211-1.575 1.049c-.6718445.44795443-1.5471555.44795443-2.219 0-.17468899-.11850882-.40056924-.13077024-.58705996-.0318673-.18649072.09890295-.30305151.29277355-.30294004.5038673l-.00000008 2.268h40.00000038l-.0000003-2.268c.0002259-.21028452-.1153455-.40361251-.3006761-.50297146s-.4103126-.08860751-.5853239.02797146c-.6718445.44795443-1.5471555.44795443-2.219 0l-1.579-1.046c-.1912168-.1280226-.4407832-.1280226-.632 0l-1.575 1.049c-.6718445.44795443-1.5471555.44795443-2.219 0l-1.574-1.049c-.1912168-.1280226-.4407832-.1280226-.632 0l-1.575 1.049c-.6718445.44795443-1.5471555.44795443-2.219 0l-1.574-1.049c-.1912168-.1280226-.4407832-.1280226-.632 0l-1.575 1.049c-.6718445.44795443-1.5471555.44795443-2.219 0l-1.574-1.049c-.1912168-.1280226-.4407832-.1280226-.632 0l-1.575 1.049c-.6718445.44795443-1.5471555.44795443-2.219 0l-1.574-1.049c-.1912168-.1280226-.4407832-.1280226-.632 0l-1.575 1.049c-.6718445.44795443-1.5471555.44795443-2.219 0l-1.574-1.049c-.19121676-.1280226-.44078324-.1280226-.632 0z"/><path id="Shape" d="m23 15c-9.93 0-18 5.83-18 13s8.07 13 18 13 18-5.83 18-13-8.07-13-18-13zm6 17c-1.2506882.0292771-2.4937607-.202309-3.65-.68-1.42 2.05-3.3 3.68-6.35 3.68-7.35 0-9-5.18-9-7 0-3.81 2.19-6 6-6 1.8111615-.0533813 3.620373.1588726 5.37.63.8546861.2474225 1.7402235.3720038 2.63.37 1.2435316.0435371 2.4740817-.2649671 3.55-.89 1.0551471-.61749 2.232742-.9963684 3.45-1.11 1.24 0 5 0 5 4 0 2.51-2.34 7-7 7z"/><path id="Shape" d="m43.22 6h-40.44c-1.75246325 7.2051939-2.68504749 14.585357-2.78 22 .09333628 7.414755 1.02594345 14.7950996 2.78 22h40.44c1.7524633-7.2051939 2.6850475-14.585357 2.78-22-.0933363-7.414755-1.0259435-14.7950996-2.78-22zm-20.22 37c-11.03 0-20-6.73-20-15s8.97-15 20-15 20 6.73 20 15-8.97 15-20 15z"/></g></g></svg>