<svg enable-background="new 0 0 512 512" height="512" viewBox="0 0 512 512" width="512" xmlns="http://www.w3.org/2000/svg"><g id="_x31_8_x2C__cupcake_x2C__muffin_x2C__sugar_x2C__sweet_x2C__dessert"><g id="XMLID_135_"><path id="XMLID_136_" d="m157.054 251.003c-14.051 0-25.482 11.432-25.482 25.482v187.689c2.64.493 5.352.756 8.114.756h42.85v-188.445c0-14.051-11.432-25.482-25.482-25.482z"/><path id="XMLID_138_" d="m223.017 251.003c-14.051 0-25.482 11.432-25.482 25.482v188.445h50.965v-188.445c0-14.051-11.431-25.482-25.483-25.482z"/><path id="XMLID_139_" d="m91.09 251.004c-13.831 0-25.116 11.078-25.466 24.826l30.508 153.357c2.484 12.487 10.133 22.902 20.44 29.211v-181.913c0-14.051-11.431-25.481-25.482-25.481z"/><path id="XMLID_140_" d="m108.868 176.484c-.093-.263-.171-.532-.234-.804-.279-1.206-.518-2.411-.722-3.615-7.061 2.198-15.794 5.711-23.189 11.085-18.283 13.287-15.735 36.267-6.597 54.995 4.073-1.381 8.43-2.142 12.965-2.142 13.595 0 25.637 6.743 32.982 17.053 4.635-6.506 11.138-11.589 18.726-14.454-18.542-22.707-27.828-44.803-33.931-62.118z"/><path id="XMLID_141_" d="m337.326 154.771c24.62 6.857 48.184 11.084 62.263 13.609 2.683.481 5.022.902 7.058 1.282 7.04-18.867 6.072-40.628-9.571-49.482-13.976-7.912-32.025-11.347-51.134-14.985-34.131-6.497-71.931-13.701-99.09-47.738-.634 5.19-1.592 10.176-2.514 14.954-3.02 15.662-5.405 28.033 4.113 40.195 11.731 14.988 40.802 28.78 88.875 42.165z"/><path id="XMLID_142_" d="m288.982 251.004c-14.051 0-25.482 11.431-25.482 25.481v188.445h50.964v-188.445c0-14.051-11.431-25.481-25.482-25.481z"/><path id="XMLID_143_" d="m420.91 251.003c-14.051 0-25.482 11.432-25.482 25.482v182.622c10.782-6.147 18.887-16.7 21.568-29.434l29.38-153.815c-.335-13.761-11.625-24.855-25.466-24.855z"/><path id="XMLID_204_" d="m306.524 214.519c-85.06-21.276-131.637-53.647-138.593-96.278-11.05-.723-23.688 4.296-32.862 13.367-5.253 5.195-12.929 15.292-13.041 29.949.075.576.078 1.147.021 1.706.088 2.732.433 5.611 1.109 8.642 6.698 18.928 16.405 41.234 37.322 64.254 12.179 1.026 22.834 7.464 29.555 16.897 7.345-10.31 19.387-17.053 32.982-17.053s25.637 6.743 32.982 17.053c7.345-10.31 19.387-17.053 32.982-17.053s25.637 6.743 32.982 17.053c2.933-4.116 6.612-7.662 10.844-10.438-2.41-13.644-12.525-24.657-26.283-28.099z"/><path id="XMLID_205_" d="m439.28 240.429c3.416-10.175 2.94-21.567-1.528-31.638-5.244-11.819-15.314-20.082-28.357-23.264-2.314-.564-6.789-1.367-12.454-2.383-14.339-2.572-38.339-6.876-63.639-13.923-51.981-14.473-82.697-29.526-96.663-47.372-13.727-17.541-10.322-35.201-7.029-52.279 1.467-7.611 2.891-14.994 2.978-22.5-3.658 2.976-7.832 5.736-11.961 8.465-17.766 11.744-37.888 25.055-38.418 55.946 1.543 18.782 13.09 35.798 34.334 50.578 21.58 15.014 53.078 27.769 93.62 37.909 18.507 4.629 32.376 18.89 36.741 36.84 2.6-.526 5.288-.805 8.041-.805 13.595 0 25.637 6.743 32.982 17.053 7.345-10.31 19.387-17.053 32.982-17.053 6.613 0 12.853 1.604 18.371 4.426z"/><path id="XMLID_206_" d="m354.946 251.004c-14.051 0-25.482 11.431-25.482 25.481v188.445h44.078c2.334 0 4.633-.195 6.886-.552v-187.893c0-14.051-11.432-25.481-25.482-25.481z"/></g></g></svg>