<svg id="Layer_3" height="512" viewBox="0 0 64 64" width="512" xmlns="http://www.w3.org/2000/svg" data-name="Layer 3"><path d="m23.116 30.993c-.039 0-.077.007-.116.007s-.077-.007-.116-.007l-.776 6.2a144.29 144.29 0 0 0 -1.108 17.807 2 2 0 0 0 4 0 144.29 144.29 0 0 0 -1.108-17.807z"/><path d="m41 29c2.79 0 5.134-2.555 5.8-6h-11.6c.666 3.445 3.01 6 5.8 6z"/><path d="m23 29c3.309 0 6-3.589 6-8s-2.691-8-6-8-6 3.589-6 8 2.691 8 6 8zm0-14c2.243 0 4 2.636 4 6h-2c0-2.29-1.056-4-2-4z"/><path d="m41.116 30.993c-.039 0-.077.007-.116.007s-.077-.007-.116-.007l-.776 6.2a144.29 144.29 0 0 0 -1.108 17.807 2 2 0 0 0 4 0 144.29 144.29 0 0 0 -1.108-17.807z"/><path d="m48 4-4-2-4 2-4-2-4 2-4-2-4 2-4-2-4 2-4-2v5h40v-5z"/><path d="m12 57a5 5 0 0 0 5 5h30a5 5 0 0 0 5-5v-48h-40zm21-46h2v10h3v-10h2v10h2v-10h2v10h3v-10h2v10c0 4.61-2.512 8.49-5.912 9.643l.788 6.3a146.146 146.146 0 0 1 1.124 18.057 4 4 0 0 1 -8 0 146.146 146.146 0 0 1 1.124-18.055l.788-6.3c-3.4-1.155-5.912-5.035-5.912-9.645zm-10 0c4.411 0 8 4.486 8 10 0 4.61-2.512 8.49-5.912 9.643l.788 6.3a146.146 146.146 0 0 1 1.124 18.057 4 4 0 0 1 -8 0 146.146 146.146 0 0 1 1.124-18.055l.788-6.3c-3.4-1.155-5.912-5.035-5.912-9.645 0-5.514 3.589-10 8-10z"/></svg>