<svg fill="none" height="512" viewBox="0 0 60 60" width="512" xmlns="http://www.w3.org/2000/svg"><path d="m54.541 14.274c.287-.346.459-.79.459-1.274 0-1.104-.896-2-2-2h-7.865l2.807-3.006c.019 0 .037.006.058.006 1.656 0 3-1.343 3-3s-1.344-3-3-3-3 1.343-3 3c0 .088.019.17.025.256l-5.361 5.744h-32.664c-1.104 0-2 .896-2 2 0 .484.172.928.459 1.274l22.541 28.422v11.304h-7c-1.104 0-2 .896-2 2s.896 2 2 2h18c1.104 0 2-.896 2-2s-.896-2-2-2h-7v-11.304zm-43.29.726h24.681l-4.666 5h5.47l4.667-5h7.347l-4.138 5h-7.876-21.347z" fill="rgb(0,0,0)"/></svg>