<svg id="Glyph_Icon" height="512" viewBox="0 0 64 64" width="512" xmlns="http://www.w3.org/2000/svg" data-name="Glyph Icon"><rect height="37.971" rx="3" width="22.42" x="29.28" y="20.694"/><rect height="4.368" rx="1" width="10.277" x="17.177" y="9.978"/><path d="m47.259 15.905c0-.552-.448-1-1-1h-2.001l-2.132-8.911c-.092-.386-.438-.659-.835-.659h-1.603c-.397 0-.743.272-.835.659l-2.132 8.911h-2.001c-.552 0-1 .448-1 1v2.789h13.538v-2.789z"/><path d="m27.28 25.935-1.117-9.589h-7.695l-1.32 11.334c-.035.304-.251.549-.539.653-4.188 1.5-4.309 6.118-4.309 6.118v1.09h14.98z"/><path d="m12.3 37.542h14.98v12.981h-14.98z"/><path d="m27.28 52.523h-14.98v4.574c0 .866.702 1.568 1.568 1.568h14.438c-.634-.838-1.025-1.87-1.025-3v-3.142z"/></svg>