<svg id="Capa_1" enable-background="new 0 0 512 512" height="512" viewBox="0 0 512 512" width="512" xmlns="http://www.w3.org/2000/svg"><g><path d="m293.09 286.791c-4.741 18.966-8.52 38.162-11.359 57.495h223.966c-2.839-19.333-6.618-38.529-11.36-57.495-4.145-16.578-7.526-33.341-10.14-50.22h-180.966c-2.615 16.879-5.996 33.642-10.141 50.22z"/><path d="m281.433 0h224.563v68.857h-224.563z"/><path d="m309.857 98.857h167.714v38.856h-167.714z"/><path d="m307.04 206.571h173.348c-1.295-12.917-2.158-25.878-2.555-38.857h-168.238c-.397 12.979-1.26 25.94-2.555 38.857z"/><path d="m509.331 374.286h-231.234c-1.769 18.6-2.669 37.283-2.669 55.976v81.738h236.572v-81.738c0-18.693-.9-37.376-2.669-55.976zm-150.056 92.059-21.191-21.191 21.213-21.213 21.191 21.191zm68.856 0-21.191-21.191 21.214-21.213 21.191 21.191z"/><path d="m6.004 137.717h224.563v69.733h-224.563z"/><path d="m202.143 277.762v-40.312h-167.714v40.312c-19.943 6.367-34.429 25.069-34.429 47.095v187.143h236.571v-187.143c0-22.026-14.485-40.728-34.428-47.095zm-118.275 60.322 21.191 21.19-21.213 21.213-21.191-21.19zm-.022 111.261-21.191-21.191 21.214-21.213 21.191 21.191zm68.858 0-21.191-21.191 21.213-21.213 21.191 21.191zm0-68.858-21.191-21.19 21.213-21.213 21.191 21.19z"/></g></svg>