<svg id="Layer_1" height="512" viewBox="0 0 48 48" width="512" xmlns="http://www.w3.org/2000/svg" data-name="Layer 1"><path d="m34 7h4a1 1 0 0 0 0-2h-4a1 1 0 0 0 0 2z"/><path d="m34 4a1 1 0 0 0 .446-.1l4-2a1 1 0 1 0 -.894-1.79l-4 2a1 1 0 0 0 .448 1.89z"/><path d="m38.447 10.105-4-2a1 1 0 0 0 -.894 1.79l4 2a1 1 0 1 0 .894-1.79z"/><path d="m24.533 22.565a7 7 0 0 1 -1.533-4.371v-1.194a1 1 0 0 0 -1-1h-8a1 1 0 0 0 -.914.594l-3.31 7.449a8.984 8.984 0 0 0 -.776 3.657v15.3a5 5 0 0 0 5 5h12a5 5 0 0 0 5-5v-9.193a9 9 0 0 0 -1.973-5.625zm2.467 17.435a2 2 0 0 1 -2 2h-10a2 2 0 0 1 -2-2v-5a2 2 0 0 1 2-2h10a2 2 0 0 1 2 2z"/><path d="m15 35h10v5h-10z"/><path d="m29.5 4.5h-1.523v-.507a2 2 0 0 0 -2-1.993h-9.977a7 7 0 0 0 -7 7.011 1 1 0 0 0 1 .989h4a1 1 0 0 1 1 1v3h6v-1a1.985 1.985 0 0 1 .079-.526 5.868 5.868 0 0 0 3.921 1.526 1 1 0 0 0 0-2 3.845 3.845 0 0 1 -2.48-.935 1.95 1.95 0 0 1 .48-.065h2.993a2 2 0 0 0 2-2.007v-.493h1.507a1.5 1.5 0 0 0 1.5-1.5v-1a1.5 1.5 0 0 0 -1.5-1.5z"/></svg>