<svg id="Capa_1" enable-background="new 0 0 512 512" height="512" viewBox="0 0 512 512" width="512" xmlns="http://www.w3.org/2000/svg"><g><path d="m240.917 511.365v-212.993l-133.698 165.291c39.239 28.359 85.272 44.872 133.698 47.702z"/><path d="m270.895 270.996v240.369c62.279-3.638 120.633-29.882 165.67-74.854 45.047-44.982 71.352-103.277 74.997-165.515z"/><path d="m405.64 142.961h37.441v98.057h-37.441z"/><path d="m75.346 75.499c-48.588 48.564-75.346 112.67-75.346 180.508s26.758 131.944 75.346 180.508c2.82 2.818 5.697 5.556 8.62 8.226l156.951-194.039v-250.067c-62.299 3.649-120.593 29.908-165.571 74.864z"/><path d="m270.895 113.182h37.348v127.836h-37.348z"/><path d="m338.221 41.048h37.441v199.971h-37.441z"/><path d="m473.06 183.042h38.94v57.976h-38.94z"/></g></svg>