<svg height="512" viewBox="0 0 64 64" width="512" xmlns="http://www.w3.org/2000/svg"><g id="_11_Hand_pointing" data-name="11 Hand pointing"><g><path d="m52.474 23.851a5.046 5.046 0 0 0 -3.491.979 5.127 5.127 0 0 0 -4.509-4.979 5.029 5.029 0 0 0 -3.837 1.264 4.951 4.951 0 0 0 -7.651-2.287v-8.656a5.133 5.133 0 0 0 -4.512-5.149 5 5 0 0 0 -5.488 4.977v18a1 1 0 0 0 2 0v-18a3.006 3.006 0 0 1 .983-2.221 2.966 2.966 0 0 1 2.315-.764 3.117 3.117 0 0 1 2.7 3.157v24.828a1 1 0 1 0 2 0v-12.172a3.006 3.006 0 0 1 .983-2.221 2.966 2.966 0 0 1 2.315-.765 3.119 3.119 0 0 1 2.704 3.158v12a1 1 0 0 0 2 0v-10.172a3.006 3.006 0 0 1 .983-2.221 2.957 2.957 0 0 1 2.315-.765 3.119 3.119 0 0 1 2.702 3.158v10a1 1 0 0 0 2 0v-6.172a3.006 3.006 0 0 1 .983-2.221 2.959 2.959 0 0 1 2.315-.765 3.119 3.119 0 0 1 2.702 3.158v14a19.022 19.022 0 0 1 -19 19h-.341a19.036 19.036 0 0 1 -16.524-9.621l-9.693-17.079a3.224 3.224 0 0 1 5.36-3.554l8.412 10.866a1 1 0 0 0 1.786-.612v-10a1 1 0 0 0 -2 0v7.074l-6.617-8.55a5.224 5.224 0 0 0 -8.682 5.762l9.7 17.08a21.038 21.038 0 0 0 18.258 10.634h.341a21.024 21.024 0 0 0 21-21v-14a5.133 5.133 0 0 0 -4.512-5.149z"/><path d="m19.987 17.963a1 1 0 0 0 .8-1.6 8.914 8.914 0 0 1 -1.787-5.363 9 9 0 1 1 17.278 3.535 1 1 0 0 0 1.839.785 11 11 0 1 0 -18.933 2.241 1 1 0 0 0 .803.402z"/></g></g></svg>