<svg id="Capa_1" enable-background="new 0 0 512 512" height="512" viewBox="0 0 512 512" width="512" xmlns="http://www.w3.org/2000/svg"><g><path d="m135 452-30 60h302l-30-60z"/><circle cx="256" cy="212" r="15"/><path d="m256 332c74.439 0 135-60.561 135-135v-62c0-74.439-60.561-135-135-135s-135 60.561-135 135v62c0 74.439 60.561 135 135 135zm60-182h-30v-60h30zm-15 62c0 24.813-20.187 45-45 45s-45-20.187-45-45 20.187-45 45-45 45 20.187 45 45zm-105-122h30v60h-30z"/><path d="m421 167v30c0 90.981-74.019 165-165 165s-165-74.019-165-165v-30h-30v30c0 97.323 71.668 178.219 165 192.692v32.308h60v-32.308c93.332-14.473 165-95.369 165-192.692v-30z"/></g></svg>