<svg id="Layer_3" height="512" viewBox="0 0 64 64" width="512" xmlns="http://www.w3.org/2000/svg" data-name="Layer 3"><circle cx="11" cy="51" r="2"/><circle cx="11" cy="41" r="2"/><path d="m7 3h4v6h-4z"/><circle cx="11" cy="31" r="2"/><path d="m17 3h4v6h-4z"/><path d="m10 19h28v2h-28z"/><path d="m45 8a1 1 0 0 0 -1-1h-1v3a1 1 0 0 1 -1 1h-6a1 1 0 0 1 -1-1v-3h-2v3a1 1 0 0 1 -1 1h-6a1 1 0 0 1 -1-1v-3h-2v3a1 1 0 0 1 -1 1h-6a1 1 0 0 1 -1-1v-3h-2v3a1 1 0 0 1 -1 1h-6a1 1 0 0 1 -1-1v-3h-1a1 1 0 0 0 -1 1v5h42z"/><path d="m52.117 47 .75-6h-13.02l1 6z"/><circle cx="51" cy="54" r="1"/><path d="m37 3h4v6h-4z"/><circle cx="41" cy="54" r="1"/><path d="m27 3h4v6h-4z"/><path d="m27 45c0-.338.032-.667.051-1h-9.051v-2h9.271a18.014 18.014 0 0 1 17.729-15v-12h-42v45a1 1 0 0 0 1 1h32.792a18.007 18.007 0 0 1 -9.792-16zm-3 3v2h-6v-2zm0-8h-6v-2h6zm4-6h-10v-2h10zm-10-4v-2h6v2zm-10-12a1 1 0 0 1 1-1h30a1 1 0 0 1 1 1v4a1 1 0 0 1 -1 1h-30a1 1 0 0 1 -1-1zm3 37a4 4 0 1 1 4-4 4 4 0 0 1 -4 4zm0-10a4 4 0 1 1 4-4 4 4 0 0 1 -4 4zm0-10a4 4 0 1 1 4-4 4 4 0 0 1 -4 4zm17 19h-10v-2h10z"/><path d="m45 29a16 16 0 1 0 16 16 16.019 16.019 0 0 0 -16-16zm-5 22h11a3 3 0 1 1 -3 3 2.966 2.966 0 0 1 .184-1h-4.368a2.966 2.966 0 0 1 .184 1 3 3 0 0 1 -6 0 2.967 2.967 0 0 1 .4-1.471 2.99 2.99 0 0 1 .457-5.3l-1.704-10.229h-3.153v-2h4a1 1 0 0 1 .986.836l.528 3.164h14.486a1 1 0 0 1 .992 1.124l-1 8a1 1 0 0 1 -.992.876h-13a1 1 0 0 0 0 2z"/></svg>