<svg id="Capa_1" enable-background="new 0 0 511.966 511.966" height="512" viewBox="0 0 511.966 511.966" width="512" xmlns="http://www.w3.org/2000/svg"><g><g><g><path d="m410.595 504.12h-309.224c.481-9.595 1.029-19.202 1.644-28.797 1.89-29.547 25.062-53.301 54.553-56.018 65.614-6.05 131.227-6.05 196.84 0 29.48 2.718 52.663 26.471 54.542 56.018.616 9.595 1.164 19.201 1.645 28.797z" fill="#90d8f9"/><path d="m222.671 415.29c-2.14.19-4.28.38-6.42.58-32.01 2.95-57.17 28.74-59.23 60.82-.58 9.14-1.11 18.29-1.58 27.43h-54.07c.48-9.59 1.03-19.2 1.64-28.8 1.89-29.54 25.06-53.3 54.56-56.01 21.7-2 43.4-3.34 65.1-4.02z" fill="#75cef9"/><path d="m291.233 364.22v47.22c0 19.47-15.78 35.25-35.25 35.25s-35.25-15.78-35.25-35.25v-47.22z" fill="#407093"/><path d="m265.963 445.25c-3.16.94-6.51 1.44-9.98 1.44-19.47 0-35.25-15.78-35.25-35.25v-47.22h19.96v47.22c0 16 10.66 29.51 25.27 33.81z" fill="#365e7d"/><path d="m291.233 364.22v46c-23.5.4-47 .4-70.5 0v-46z" fill="#365e7d"/><g fill="#dd636e"><circle cx="172.954" cy="37.239" r="29.398"/><circle cx="255.983" cy="37.239" r="29.398"/><circle cx="339.012" cy="37.239" r="29.398"/></g><g fill="#da4a54"><path d="m181.934 65.241c-2.83.91-5.85 1.4-8.98 1.4-16.24 0-29.4-13.16-29.4-29.4 0-16.23 13.16-29.4 29.4-29.4 3.13 0 6.15.49 8.98 1.4-11.85 3.79-20.42 14.9-20.42 28 0 13.11 8.57 24.21 20.42 28z"/><path d="m264.964 65.241c-2.83.91-5.85 1.4-8.98 1.4-16.24 0-29.4-13.16-29.4-29.4 0-16.23 13.16-29.4 29.4-29.4 3.13 0 6.15.49 8.98 1.4-11.85 3.79-20.42 14.9-20.42 28 0 13.11 8.57 24.21 20.42 28z"/><path d="m347.994 65.241c-2.83.91-5.85 1.4-8.98 1.4-16.24 0-29.4-13.16-29.4-29.4 0-16.23 13.16-29.4 29.4-29.4 3.13 0 6.15.49 8.98 1.4-11.85 3.79-20.42 14.9-20.42 28 0 13.11 8.57 24.21 20.42 28z"/></g><path d="m468.059 124.724c-141.384-3.364-282.769-3.364-424.153 0-15.25.363-28.578 10.728-32.365 25.505-5.412 21.118-5.412 42.236 0 63.354 3.787 14.777 17.114 25.142 32.365 25.505 141.384 3.364 282.769 3.364 424.153 0 15.25-.363 28.578-10.728 32.365-25.505 5.412-21.118 5.412-42.236 0-63.354-3.787-14.777-17.114-25.142-32.365-25.505z" fill="#407093"/><path d="m503.057 200.711c-.648 4.29-1.525 8.581-2.629 12.871-3.79 14.783-17.116 25.15-32.365 25.503-141.387 3.369-282.773 3.369-424.16 0-15.249-.353-28.575-10.72-32.365-25.503-1.104-4.29-1.98-8.581-2.629-12.871 6.43 3.255 16.228 5.292 26.925 5.394 146.769 1.423 293.527 1.423 440.297 0 10.698-.102 20.496-2.139 26.926-5.394z" fill="#365e7d"/><path d="m395.934 39.546c-93.3-6.287-186.601-6.287-279.901 0-33.401 2.251-60.12 28.606-62.939 61.963-6.319 74.79-6.319 149.58 0 224.37 2.818 33.358 29.538 59.713 62.939 61.963 93.3 6.287 186.601 6.287 279.901 0 33.401-2.251 60.12-28.606 62.939-61.963 6.319-74.79 6.319-149.58 0-224.37-2.819-33.357-29.539-59.712-62.939-61.963z" fill="#90d8f9"/><path d="m123.386 388.32c-2.458-.148-4.905-.319-7.352-.478-33.4-2.253-60.121-28.61-62.943-61.965-6.316-74.79-6.316-149.58 0-224.37 2.822-33.355 29.543-59.711 62.943-61.965 2.447-.159 4.894-.33 7.352-.478-22.396 10.379-38.408 32.194-40.593 58.05-6.566 77.715-6.566 155.441 0 233.167 2.185 25.856 18.197 47.66 40.593 58.039z" fill="#75cef9"/><path d="m384.364 74.988c-85.587-5.673-171.175-5.673-256.762 0-17.019 1.128-30.815 14.25-32.708 31.201-6.484 58.047-6.484 116.094 0 174.14 1.893 16.95 15.69 30.072 32.708 31.201 85.588 5.673 171.175 5.673 256.762 0 17.018-1.128 30.815-14.25 32.708-31.2 6.484-58.047 6.484-116.094 0-174.14-1.893-16.952-15.689-30.074-32.708-31.202z" fill="#daeefa"/><path d="m138.436 312.21c-3.607-.216-7.226-.444-10.834-.683-17.013-1.127-30.817-14.248-32.706-31.193-6.487-58.05-6.487-116.1 0-174.15 1.889-16.945 15.693-30.066 32.706-31.193 3.619-.239 7.238-.467 10.857-.683-10.299 5.565-17.639 15.909-19.005 28.166-6.76 60.519-6.76 121.05 0 181.57 1.366 12.257 8.695 22.59 18.982 28.166z" fill="#c0e3f8"/><g fill="#90d8f9"><circle cx="168.609" cy="134.892" r="31.032"/><circle cx="343.357" cy="134.892" r="31.032"/></g><g fill="#75cef9"><path d="m181.767 163.001c-3.994 1.878-8.455 2.925-13.155 2.925-17.139 0-31.034-13.895-31.034-31.034s13.895-31.034 31.034-31.034c4.7 0 9.161 1.047 13.155 2.925-10.561 4.95-17.878 15.67-17.878 28.109s7.317 23.159 17.878 28.109z"/><path d="m356.52 163.001c-3.994 1.878-8.456 2.925-13.155 2.925-17.139 0-31.034-13.895-31.034-31.034s13.895-31.034 31.034-31.034c4.7 0 9.161 1.047 13.155 2.925-10.572 4.939-17.89 15.67-17.89 28.109s7.318 23.17 17.89 28.109z"/></g></g></g><g><path d="m507.693 148.361c-4.59-17.888-20.813-30.692-39.458-31.137l-.62-.014c-.393-5.449-.809-10.894-1.268-16.332-1.515-17.922-9.402-34.741-22.212-47.358-12.819-12.628-29.758-20.248-47.697-21.457-7.027-.474-14.064-.899-21.105-1.301-3.071-17.263-18.182-30.416-36.319-30.416-17.061 0-31.556 11.635-35.699 27.555-3.901-.088-7.803-.179-11.705-.245-4.254-15.763-18.76-27.311-35.625-27.311s-31.371 11.547-35.625 27.311c-3.903.066-7.804.157-11.705.245-4.144-15.92-18.638-27.555-35.699-27.555-18.137 0-33.248 13.153-36.319 30.416-7.041.402-14.078.828-21.105 1.301-17.939 1.209-34.878 8.829-47.697 21.457-12.81 12.617-20.697 29.436-22.212 47.358-.459 5.438-.875 10.884-1.268 16.333l-.627.014c-18.639.445-34.861 13.249-39.452 31.141-5.696 22.259-5.696 44.825.001 67.075 4.386 17.107 19.405 29.557 37.017 31.011.651 26.756 2.083 53.474 4.33 80.059 1.515 17.922 9.402 34.741 22.212 47.358 12.819 12.628 29.758 20.248 47.697 21.457 32.445 2.186 65.051 3.594 97.704 4.258v8.533c-18.606.741-37.524 1.987-56.349 3.716-16.047 1.479-31.075 8.649-42.317 20.187-11.249 11.546-18.011 26.754-19.039 42.825-.623 9.803-1.177 19.527-1.646 28.901-.104 2.052.641 4.056 2.056 5.544 1.416 1.489 3.38 2.331 5.435 2.331h309.221c2.055 0 4.019-.843 5.435-2.331 1.415-1.488 2.159-3.492 2.056-5.544-.469-9.374-1.022-19.097-1.646-28.895-.332-5.285-1.287-10.511-2.839-15.533-1.223-3.957-5.418-6.175-9.38-4.952-3.958 1.223-6.175 5.422-4.952 9.38 1.202 3.891 1.942 7.944 2.2 12.052.446 7.017.856 13.992 1.226 20.824h-293.42c.369-6.832.779-13.807 1.225-20.821 1.664-26.012 21.752-46.632 47.761-49.03 18.911-1.736 37.917-2.976 56.595-3.701 5.078 17.938 21.588 31.123 41.13 31.123s36.051-13.185 41.13-31.123c18.692.725 37.703 1.965 56.613 3.701 11.954 1.099 23.276 6.309 31.88 14.67 1.457 1.416 3.343 2.121 5.226 2.121 1.956 0 3.909-.76 5.38-2.273 2.887-2.97 2.818-7.719-.152-10.606-11.055-10.743-25.602-17.438-40.961-18.85-18.822-1.728-37.746-2.974-56.365-3.715v-8.533c32.653-.664 65.259-2.071 97.704-4.258 17.939-1.209 34.878-8.829 47.697-21.457 12.81-12.617 20.697-29.436 22.212-47.358 2.246-26.584 3.679-53.302 4.33-80.058 17.604-1.448 32.63-13.901 37.018-31.014 5.689-22.249 5.689-44.815-.008-67.079zm-168.68-133.015c9.509 0 17.618 6.092 20.637 14.574-13.522-.67-27.066-1.197-40.621-1.604 3.423-7.663 11.111-12.97 19.984-12.97zm-83.03 0c8.48 0 15.948 4.919 19.569 12.105-13.045-.121-26.093-.121-39.137 0 3.62-7.186 11.088-12.105 19.568-12.105zm-83.03 0c8.873 0 16.561 5.307 19.984 12.971-13.555.407-27.099.934-40.621 1.604 3.018-8.484 11.128-14.575 20.637-14.575zm-154.15 196.372c-5.064-19.779-5.064-39.843-.001-59.629 2.869-11.182 12.91-19.231 24.552-19.822-1.999 32.932-2.782 66.009-2.35 99.056-10.626-1.482-19.529-9.182-22.201-19.605zm264.93 199.722c0 15.302-12.448 27.75-27.75 27.75s-27.75-12.448-27.75-27.75v-11.605c9.249.122 18.499.201 27.75.201s18.501-.079 27.75-.201zm167.666-86.192c-1.213 14.356-7.531 27.829-17.791 37.935-10.263 10.109-23.821 16.209-38.179 17.177-92.531 6.235-186.361 6.235-278.893 0-14.357-.968-27.916-7.068-38.179-17.177-10.26-10.106-16.578-23.578-17.791-37.935-6.255-74.021-6.255-149.085 0-223.107 1.213-14.356 7.531-27.829 17.791-37.935 10.262-10.109 23.821-16.209 38.179-17.177 46.266-3.117 92.855-4.676 139.446-4.676s93.181 1.559 139.446 4.676c14.357.968 27.917 7.068 38.179 17.177 10.26 10.106 16.578 23.578 17.791 37.935 6.256 74.022 6.256 149.086.001 223.107zm41.765-113.532c-2.674 10.429-11.583 18.131-22.203 19.609.433-33.047-.351-66.124-2.35-99.057 11.647.594 21.684 8.642 24.552 19.817 5.064 19.79 5.064 39.854.001 59.631z"/><path d="m384.86 67.507c-85.518-5.675-172.236-5.675-257.754 0-20.692 1.373-37.375 17.293-39.667 37.851-5.32 47.638-6.306 95.98-2.928 143.682.293 4.132 3.883 7.251 8.011 6.951 4.132-.292 7.244-3.879 6.952-8.011-3.314-46.797-2.348-94.222 2.873-140.959 1.486-13.332 12.316-23.656 25.753-24.547 84.855-5.631 170.91-5.631 255.766 0 13.437.892 24.267 11.216 25.753 24.548 6.389 57.223 6.389 115.253 0 172.477-1.486 13.332-12.316 23.655-25.752 24.547-84.856 5.621-170.909 5.622-255.767 0-13.437-.892-24.267-11.216-25.749-24.511l-.219-1.979c-.434-4.119-4.119-7.111-8.243-6.675-4.119.433-7.107 4.123-6.675 8.243l.225 2.037c2.292 20.559 18.975 36.479 39.668 37.853 42.758 2.833 85.816 4.249 128.875 4.249 43.06 0 86.119-1.416 128.878-4.249 20.692-1.374 37.375-17.293 39.667-37.851 6.511-58.328 6.511-117.477 0-175.803-2.292-20.56-18.975-36.48-39.667-37.853z"/><path d="m207.141 134.892c0-21.247-17.285-38.532-38.532-38.532-21.246 0-38.531 17.285-38.531 38.532s17.285 38.532 38.531 38.532c21.247 0 38.532-17.285 38.532-38.532zm-62.063 0c0-12.975 10.556-23.532 23.531-23.532s23.532 10.556 23.532 23.532-10.557 23.532-23.532 23.532-23.531-10.556-23.531-23.532z"/><path d="m343.357 96.361c-21.247 0-38.532 17.285-38.532 38.532s17.285 38.532 38.532 38.532c21.246 0 38.531-17.285 38.531-38.532s-17.285-38.532-38.531-38.532zm0 62.063c-12.976 0-23.532-10.556-23.532-23.532s10.557-23.532 23.532-23.532 23.531 10.556 23.531 23.532-10.555 23.532-23.531 23.532z"/><path d="m299.813 181.426c0-4.142-3.357-7.5-7.5-7.5s-7.5 3.358-7.5 7.5c0 15.897-12.934 28.83-28.83 28.83s-28.83-12.933-28.83-28.83c0-4.142-3.357-7.5-7.5-7.5s-7.5 3.358-7.5 7.5c0 24.168 19.662 43.83 43.83 43.83s43.83-19.662 43.83-43.83z"/><path d="m389.486 189.469h-30.653c-4.143 0-7.5 3.358-7.5 7.5s3.357 7.5 7.5 7.5h30.653c4.143 0 7.5-3.358 7.5-7.5s-3.357-7.5-7.5-7.5z"/><path d="m389.486 214.825h-30.653c-4.143 0-7.5 3.358-7.5 7.5s3.357 7.5 7.5 7.5h30.653c4.143 0 7.5-3.358 7.5-7.5s-3.357-7.5-7.5-7.5z"/><path d="m114.98 196.969c0 4.142 3.357 7.5 7.5 7.5h30.653c4.143 0 7.5-3.358 7.5-7.5s-3.357-7.5-7.5-7.5h-30.653c-4.142 0-7.5 3.358-7.5 7.5z"/><path d="m122.48 229.825h30.653c4.143 0 7.5-3.358 7.5-7.5s-3.357-7.5-7.5-7.5h-30.653c-4.143 0-7.5 3.358-7.5 7.5s3.358 7.5 7.5 7.5z"/><path d="m161.86 442.033c-1.075-2.615-3.597-4.304-6.424-4.304-.001 0-.003 0-.005 0-2.829.002-5.351 1.695-6.423 4.313-.019.046-.037.092-.055.138l-15.658 41.112c-1.179 3.097.375 6.563 3.472 7.743 3.1 1.179 6.563-.375 7.743-3.472l2.428-6.375h16.875l2.399 6.357c.906 2.403 3.189 3.883 5.614 3.883.704 0 1.42-.125 2.117-.388 3.101-1.17 4.665-4.632 3.495-7.732l-15.516-41.114c-.019-.052-.041-.107-.062-.161zm-10.351 27.157 3.906-10.256 3.87 10.256z"/><path d="m187.163 443.729v41.699c0 3.314 2.687 6 6 6s6-2.686 6-6v-41.699c0-3.314-2.687-6-6-6s-6 2.687-6 6z"/></g></g></svg>