<svg height="426pt" viewBox="0 0 426 426.79765" width="426pt" xmlns="http://www.w3.org/2000/svg"><path d="m309.730469 85.46875h-10.664063v-23.300781c14.691406-5.191407 23.507813-20.21875 20.871094-35.578125-2.636719-15.363282-15.953125-26.589844-31.539062-26.589844-15.585938 0-28.902344 11.226562-31.539063 26.589844-2.636719 15.359375 6.179687 30.386718 20.871094 35.578125v23.300781h-128v-23.300781c14.695312-5.191407 23.507812-20.21875 20.875-35.578125-2.636719-15.363282-15.953125-26.589844-31.539063-26.589844-15.585937 0-28.90625 11.226562-31.539062 26.589844-2.636719 15.359375 6.175781 30.386718 20.871094 35.578125v23.300781h-10.667969c-29.441407.03125-53.300781 23.890625-53.332031 53.332031v181.332031c.03125 29.445313 23.890624 53.304688 53.332031 53.335938h32v42.664062c.003906 3.878907 2.109375 7.449219 5.5 9.328126 3.390625 1.878906 7.535156 1.769531 10.820312-.285157l82.742188-51.707031h60.9375c29.445312-.027344 53.308593-23.890625 53.335937-53.335938v-181.332031c-.027344-29.441406-23.890625-53.304687-53.335937-53.332031zm-149.332031 64c17.664062.019531 31.980468 14.335938 32 32 0 5.890625-4.773438 10.664062-10.667969 10.664062-5.890625 0-10.664063-4.773437-10.664063-10.664062s-4.777344-10.667969-10.667968-10.667969c-5.890626 0-10.667969 4.777344-10.667969 10.667969s-4.773438 10.664062-10.664063 10.664062-10.667968-4.773437-10.667968-10.664062c.019531-17.664062 14.335937-31.980469 32-32zm132.769531 132.207031c-24.824219 11.707031-51.992188 17.609375-79.4375 17.25-27.445313.359375-54.609375-5.539062-79.4375-17.25-5.269531-2.632812-7.402344-9.042969-4.769531-14.3125 2.636718-5.269531 9.042968-7.40625 14.3125-4.769531 39.84375 19.914062 99.957031 19.914062 139.792968 0 5.269532-2.636719 11.675782-.5 14.3125 4.769531 2.632813 5.269531.496094 11.679688-4.773437 14.3125zm-4.769531-89.542969c-2.828126.003907-5.542969-1.121093-7.542969-3.121093s-3.125-4.714844-3.125-7.542969c0-5.890625-4.773438-10.667969-10.664063-10.667969s-10.667968 4.777344-10.667968 10.667969-4.773438 10.664062-10.667969 10.664062c-5.890625 0-10.664063-4.773437-10.664063-10.664062 0-17.675781 14.324219-32 32-32 17.671875 0 32 14.324219 32 32 0 2.828125-1.121094 5.542969-3.125 7.542969-2 2-4.714844 3.125-7.542968 3.121093zm0 0"/><path d="m395.066406 170.800781h-10.667968v106.667969h10.667968c17.664063-.019531 31.980469-14.335938 32-32v-42.667969c-.019531-17.664062-14.335937-31.980469-32-32zm0 0"/><path d="m.398438 202.800781v42.667969c.019531 17.664062 14.335937 31.980469 32 32h10.667968v-106.667969h-10.667968c-17.664063.019531-31.980469 14.335938-32 32zm0 0"/></svg>