<svg enable-background="new 0 0 32 32" viewBox="0 0 32 32" xmlns="http://www.w3.org/2000/svg"><g id="Guides"/><g id="_x32_0"/><g id="_x31_9"/><g id="_x31_8"/><g id="_x31_7"/><g id="_x31_6"/><g id="_x31_5"/><g id="_x31_4"/><g id="_x31_3"/><g id="_x31_2"/><g id="_x31_1"/><g id="_x31_0"><path d="m26 10c2.2060547 0 4-1.7944336 4-4s-1.7939453-4-4-4-4 1.7944336-4 4 1.7939453 4 4 4z"/><path d="m29 12h-6c-.5527344 0-1 .4477539-1 1v6c0 .5522461.4472656 1 1 1h6c.5527344 0 1-.4477539 1-1v-6c0-.5522461-.4472656-1-1-1z"/><path d="m29.4472656 25.1054688-6-3c-.3105469-.1533203-.6787109-.1376953-.9726563.0439453-.2949218.1821289-.4746093.5039062-.4746093.8505859v6c0 .3466797.1796875.668457.4746094.8505859.1601562.0991211.3427734.1494141.5253906.1494141.1533203 0 .3056641-.0351563.4472656-.1054688l6-3c.3388672-.1694335.5527344-.5156249.5527344-.8945312s-.2138672-.7250977-.5527344-.8945312z"/><path d="m17 6v9h-2v2h2v9c0 .5522461.4472656 1 1 1h3v-2h-2v-8h2v-2h-2v-8h2v-2h-3c-.5527344 0-1 .4477539-1 1z"/><path d="m6 8v4h-4z"/><path d="m2 13v10c0 .5522461.4476929 1 1 1h10c.5523071 0 1-.4477539 1-1v-14c0-.5523071-.4476929-1-1-1h-6v4c0 .5523071-.4476929 1-1 1zm2 8.5c0-.276123.223877-.5.5-.5h7c.276123 0 .5.223877.5.5s-.223877.5-.5.5h-7c-.276123 0-.5-.223877-.5-.5zm0-2c0-.276123.223877-.5.5-.5h7c.276123 0 .5.223877.5.5s-.223877.5-.5.5h-7c-.276123 0-.5-.223877-.5-.5zm0-2c0-.276123.223877-.5.5-.5h7c.276123 0 .5.223877.5.5s-.223877.5-.5.5h-7c-.276123 0-.5-.223877-.5-.5zm0-2c0-.276123.223877-.5.5-.5h7c.276123 0 .5.223877.5.5s-.223877.5-.5.5h-7c-.276123 0-.5-.223877-.5-.5z"/></g><g id="_x30_9"/><g id="_x30_8"/><g id="_x30_7"/><g id="_x30_6"/><g id="_x30_5"/><g id="_x30_4"/><g id="_x30_3"/><g id="_x30_2"/><g id="_x30_1"/></svg>