<svg id="Layer_1" enable-background="new 0 0 468 468" height="512" viewBox="0 0 468 468" width="512" xmlns="http://www.w3.org/2000/svg"><g id="XMLID_91_"><g id="XMLID_349_"><g id="XMLID_790_"><path id="XMLID_868_" d="m335.482 221.41v216.59c0 7.732-6.268 14-14 14h-259.482c-7.732 0-14-6.268-14-14v-356.618c0-7.732 6.268-14 14-14h259.482c7.732 0 14 6.268 14 14z" fill="#fff"/></g><g id="XMLID_680_"><path id="XMLID_837_" d="m108 164.519v-97.138h-46c-7.732 0-14 6.268-14 14v356.619c0 7.732 6.268 14 14 14h259.482c7.732 0 14-6.268 14-14v-46c-125.635 0-227.482-101.847-227.482-227.481z" fill="#e6e7e8"/></g><g id="XMLID_348_"><g id="XMLID_250_"><path id="XMLID_1058_" d="m123.09 281.972h137.302v32h-137.302z" fill="#3e4d6c"/></g><g id="XMLID_249_"><path id="XMLID_1056_" d="m123.09 359.568h137.302v32h-137.302z" fill="#3e4d6c"/></g><g id="XMLID_675_"><path id="XMLID_1054_" d="m123.09 127.813h137.302v32h-137.302z" fill="#3e4d6c"/></g><g id="XMLID_674_"><path id="XMLID_1052_" d="m123.09 205.409h137.302v32h-137.302z" fill="#3e4d6c"/></g></g><g id="XMLID_990_"><path id="XMLID_1051_" d="m321.481 468h-259.481c-16.542 0-30-13.458-30-30v-356.618c0-16.542 13.458-30 30-30h129.06v32h-127.06v352.618h255.481v-184.59h32v186.59c0 16.542-13.458 30-30 30z" fill="#3e4d6c"/></g></g><g id="XMLID_234_"><g id="XMLID_232_"><ellipse id="XMLID_874_" cx="325.124" cy="110.69" fill="#0795fe" rx="110.876" ry="110.69"/></g><g id="XMLID_233_"><path id="XMLID_1050_" d="m362.307 147.289-44.368-22.303c-5.404-2.717-8.814-8.248-8.814-14.296v-76.953h32v67.088l35.554 17.872z" fill="#fff"/></g></g></g></svg>