<svg fill="none" height="512" viewBox="0 0 32 32" width="512" xmlns="http://www.w3.org/2000/svg"><g fill="rgb(0,0,0)"><path clip-rule="evenodd" d="m5 2c-1.65685 0-3 1.34315-3 3v22c0 1.6569 1.34315 3 3 3h16c1.6569 0 3-1.3431 3-3v-5.0619c-.3276.0409-.6613.0619-1 .0619s-.6724-.021-1-.0619v5.0619c0 .5523-.4477 1-1 1h-16c-.55228 0-1-.4477-1-1v-17h12.0703c1.3832-2.39121 3.9686-4 6.9297-4 .3387 0 .6724.02104 1 .06189v-1.06189c0-1.65685-1.3431-3-3-3zm0 5c.55228 0 1-.44772 1-1s-.44772-1-1-1-1 .44772-1 1 .44772 1 1 1zm2-1c0-.55228.44772-1 1-1h3c.5523 0 1 .44772 1 1s-.4477 1-1 1h-3c-.55228 0-1-.44772-1-1z" fill-rule="evenodd"/><path d="m19.7074 21.2931c-.1926-.087-.3812-.1815-.5653-.2831-.0464-.0066-.0939-.01-.1421-.01h-12c-.55228 0-1 .4477-1 1s.44772 1 1 1h12c.5523 0 1-.4477 1-1 0-.276-.1118-.5259-.2926-.7069z"/><path d="m17.7084 20c-.648-.5719-1.2027-1.2472-1.6381-2h-9.0703c-.55228 0-1 .4477-1 1s.44772 1 1 1z"/><path d="m15.5815 17c-.2553-.6307-.4325-1.3014-.5196-2h-8.0619c-.55228 0-1 .4477-1 1s.44772 1 1 1z"/><path d="m7 12c-.55228 0-1 .4477-1 1s.44772 1 1 1h1c.55228 0 1-.4477 1-1s-.44772-1-1-1z"/><path d="m7 24c-.55228 0-1 .4477-1 1s.44772 1 1 1h12c.5523 0 1-.4477 1-1s-.4477-1-1-1z"/><path d="m11 12c-.5523 0-1 .4477-1 1s.4477 1 1 1h1c.5523 0 1-.4477 1-1s-.4477-1-1-1z"/><path clip-rule="evenodd" d="m23 7c-3.866 0-7 3.134-7 7s3.134 7 7 7 7-3.134 7-7-3.134-7-7-7zm0 3.5c.5523 0 1 .4477 1 1v1.823l1.8714.7485c.5128.2051.7622.7871.5571 1.2999s-.7871.7622-1.2999.5571l-2.5-1c-.3796-.1519-.6286-.5196-.6286-.9285v-2.5c0-.5523.4477-1 1-1z" fill-rule="evenodd"/></g></svg>