<svg xmlns="http://www.w3.org/2000/svg" version="1.1" xmlnsXlink="http://www.w3.org/1999/xlink" xmlnsSvgjs="http://svgjs.com/svgjs" width="512" height="512" x="0" y="0" viewBox="0 0 512.003 512.003" style="enable-background:new 0 0 512 512" xml:space="preserve" class=""><g><g fill-rule="evenodd" clip-rule="evenodd"><path fill="#e8ae88" d="M90.001 70V50.001c0-22.041-17.826-39.918-39.848-40h-.152c-22.091 0-40 17.909-40 40V70z" data-original="#c5d3de" class=""></path><path fill="#ffe8d9" d="M50.153 10.001c22.022.082 39.848 17.959 39.848 40V462.002c0 22.091 17.908 40 40 40s40-17.908 40-40v-19.999h252.002V50.001c0-22.046-18.016-40.155-40.121-40H50.153zm154.271 84.212c.337-4.038 3.315-7.368 7.368-7.368h88.42c4.052 0 7.032 3.33 7.368 7.368l7.369 88.421c.336 4.038-3.316 7.368-7.368 7.368H204.423c-4.052 0-7.704-3.33-7.368-7.368z" data-original="#ffffff" class=""></path><path fill="#ff4100" d="m204.424 94.213-7.369 88.421c-.336 4.038 3.316 7.368 7.368 7.368H307.58c4.052 0 7.705-3.33 7.368-7.368l-7.369-88.421c-.337-4.038-3.316-7.368-7.368-7.368h-88.42c-4.052 0-7.031 3.33-7.367 7.368z" data-original="#ff5d7d" class=""></path><path fill="#e8ae88" d="M422.002 442.003H170v19.999c0 22.091-17.908 40-40 40h332.001c22.092 0 40-17.908 40-40v-19.999z" data-original="#c5d3de" class=""></path></g><path d="M512.002 442.003c0-5.523-4.477-10-10-10h-70V50.001c0-13.413-5.263-26.025-14.819-35.515C407.767 5.136 395.345 0 382.235 0l-.354.001H50.001c-27.57 0-50 22.43-50 50V70c0 5.522 4.477 10 10 10h70v382.003c0 27.57 22.43 50 50 50h332.001c27.57 0 50-22.43 50-50zM80 60H20v-9.999c0-16.542 13.458-30 30-30s30 13.458 30 30zm382.002 432.003H169.977a49.75 49.75 0 0 0 10.023-30v-10h110.997c5.523 0 10-4.478 10-10s-4.477-10-10-10H170a10.001 10.001 0 0 0-10 10v20c0 16.542-13.458 30-30 30s-30-13.458-30-30V50.001c0-11.248-3.735-21.637-10.027-30h291.978c7.949-.078 15.448 3.025 21.14 8.677 5.747 5.706 8.911 13.279 8.911 21.323v382.002h-31.004c-5.523 0-10 4.478-10 10s4.477 10 10 10h111.004v10c0 16.542-13.458 30-30 30z" fill="#000000" data-original="#000000" class=""></path><path d="M140.003 260.003h231.998c5.523 0 10-4.478 10-10s-4.477-10-10-10H140.003c-5.523 0-10 4.478-10 10s4.477 10 10 10zM140.003 308.003h231.998c5.523 0 10-4.478 10-10s-4.477-10-10-10H140.003c-5.523 0-10 4.478-10 10s4.477 10 10 10zM140.003 356.003h231.998c5.523 0 10-4.478 10-10s-4.477-10-10-10H140.003c-5.523 0-10 4.478-10 10s4.477 10 10 10zM382.001 394.003c0-5.522-4.477-10-10-10H140.003c-5.523 0-10 4.478-10 10s4.477 10 10 10h231.998c5.523 0 10-4.478 10-10zM204.423 200.002H307.58c4.917 0 9.647-2.076 12.979-5.696 3.191-3.468 4.738-7.908 4.355-12.502l-7.369-88.421c-.785-9.429-8.237-16.538-17.333-16.538h-12.105v-4.738c0-17.702-14.402-32.104-32.105-32.104s-32.105 14.402-32.105 32.104v4.738h-12.105c-9.096 0-16.548 7.109-17.333 16.538l-7.369 88.421c-.383 4.594 1.164 9.034 4.355 12.502a17.683 17.683 0 0 0 12.978 5.696zm39.474-127.896c0-6.675 5.43-12.104 12.105-12.104s12.105 5.43 12.105 12.104v4.738h-24.21zm-29.658 24.739h10.02c1.157 4.243 5.028 7.366 9.638 7.366s8.48-3.124 9.638-7.366h24.934c1.157 4.243 5.028 7.366 9.638 7.366s8.48-3.124 9.638-7.366h10.02l6.93 83.157h-97.386zM140.003 148.423h22.362c5.523 0 10-4.478 10-10s-4.477-10-10-10h-22.362c-5.523 0-10 4.478-10 10s4.477 10 10 10zM349.638 148.423H372c5.523 0 10-4.478 10-10s-4.477-10-10-10h-22.362c-5.523 0-10 4.478-10 10s4.477 10 10 10zM336.001 432.003h-.007c-5.523 0-9.996 4.478-9.996 10s4.48 10 10.003 10 10-4.478 10-10-4.477-10-10-10z" fill="#000000" data-original="#000000" class=""></path></g></svg>