<?xml version="1.0" encoding="iso-8859-1"?>
<!-- Generator: Adobe Illustrator 19.0.0, SVG Export Plug-In . SVG Version: 6.00 Build 0)  -->
<svg version="1.1" id="Capa_1" xmlns="http://www.w3.org/2000/svg" xmlns:xlink="http://www.w3.org/1999/xlink" x="0px" y="0px"
	 viewBox="0 0 512 512" style="enable-background:new 0 0 512 512;" xml:space="preserve">
<path style="fill:#F3E8D6;" d="M367.837,7.504l-37.282,12.003L293.272,7.504L255.99,19.507L218.709,7.504l-37.276,12.003
	L144.152,7.504L106.87,19.507L69.589,7.504v489.452c0,4.166,3.377,7.543,7.543,7.543h357.736c4.166,0,7.543-3.377,7.543-7.543V7.504
	l-37.287,12.003L367.837,7.504z"/>
<path style="fill:#CEBEAB;" d="M405.124,19.507l-16.667-5.365v490.357h46.411c4.166,0,7.543-3.377,7.543-7.543V7.503L405.124,19.507
	z"/>
<path style="fill:#62B240;" d="M369.389,451.651c-17.091-0.424-29.944-9.605-29.944-17.514c0-3.955,3.531-9.888,7.91-9.888
	c5.367,0,9.604,9.181,22.034,10.593v-28.108c-12.853-4.802-27.401-10.311-27.401-28.39c0-17.938,13.277-25.707,27.401-27.543v-3.955
	c0-1.836,2.119-3.531,4.803-3.531c2.401,0,4.802,1.695,4.802,3.531v3.672c9.18,0.282,24.152,2.966,24.152,11.158
	c0,3.249-2.259,9.746-7.486,9.746c-3.955,0-7.204-4.52-16.667-5.226v24.859c12.571,4.661,26.695,11.017,26.695,30.226
	c0,17.374-10.876,27.402-26.695,29.944v4.379c0,1.836-2.401,3.531-4.802,3.531c-2.684,0-4.803-1.695-4.803-3.531L369.389,451.651
	L369.389,451.651z M370.519,387.949v-21.328c-7.063,1.13-11.299,4.52-11.299,9.887C359.22,382.723,364.022,385.407,370.519,387.949z
	 M377.864,410.125v24.576c6.215-1.271,10.593-4.943,10.593-11.582C388.457,416.198,383.937,412.808,377.864,410.125z"/>
<g>
	<path style="fill:#FC502A;" d="M106.394,60.28c0-1.983,1.507-3.728,3.807-3.728h16.42c10.867,0,19.513,4.046,19.513,16.975
		c0,8.884-4.045,13.961-9.598,16.102l9.678,17.53c0.317,0.476,0.397,1.031,0.397,1.428c0,3.093-4.125,6.425-7.774,6.425
		c-1.586,0-3.094-0.634-3.966-2.3l-10.867-21.1h-5.235v19.117c0,2.538-3.094,3.807-6.187,3.807c-3.094,0-6.187-1.269-6.187-3.807
		V60.28H106.394z M118.768,67.34v14.754h7.853c4.442,0,7.139-1.824,7.139-7.377c0-5.552-2.697-7.377-7.139-7.377H118.768z"/>
	<path style="fill:#FC502A;" d="M169.057,80.745h11.898c2.38,0,3.728,2.3,3.728,4.839c0,2.142-1.11,4.68-3.728,4.68h-11.898v13.485
		h21.258c2.38,0,3.728,2.538,3.728,5.473c0,2.538-1.11,5.314-3.728,5.314h-28.239c-2.697,0-5.394-1.269-5.394-3.807v-50.37
		c0-2.538,2.697-3.808,5.394-3.808h28.239c2.618,0,3.728,2.776,3.728,5.315c0,2.935-1.349,5.473-3.728,5.473h-21.258V80.745z"/>
	<path style="fill:#FC502A;" d="M221.725,67.34c-4.522,0-7.139,2.538-7.139,7.932v21.021c0,5.394,2.617,7.932,7.218,7.932
		c6.346,0,6.743-4.839,6.981-7.932c0.238-2.935,2.935-3.729,6.108-3.729c4.283,0,6.266,1.111,6.266,5.87
		c0,10.55-8.567,16.578-19.91,16.578c-10.391,0-19.037-5.077-19.037-18.72v-21.02c0-13.644,8.646-18.72,19.037-18.72
		c11.343,0,19.91,5.711,19.91,15.785c0,4.759-1.983,5.87-6.187,5.87c-3.332,0-6.028-0.873-6.187-3.728
		C228.705,72.416,228.467,67.34,221.725,67.34z"/>
	<path style="fill:#FC502A;" d="M263.764,80.745h11.898c2.38,0,3.729,2.3,3.729,4.839c0,2.142-1.111,4.68-3.729,4.68h-11.898v13.485
		h21.258c2.38,0,3.729,2.538,3.729,5.473c0,2.538-1.111,5.314-3.729,5.314h-28.239c-2.697,0-5.394-1.269-5.394-3.807v-50.37
		c0-2.538,2.697-3.808,5.394-3.808h28.239c2.618,0,3.729,2.776,3.729,5.315c0,2.935-1.349,5.473-3.729,5.473h-21.258V80.745z"/>
	<path style="fill:#FC502A;" d="M298.107,60.28c0-2.617,3.094-3.728,6.187-3.728s6.187,1.111,6.187,3.728v50.449
		c0,2.538-3.094,3.807-6.187,3.807s-6.187-1.269-6.187-3.807V60.28z"/>
	<path style="fill:#FC502A;" d="M323.013,60.28c0-1.983,1.825-3.728,4.601-3.728h16.42c10.471,0,18.72,4.918,18.72,18.244v0.397
		c0,13.326-8.567,18.403-19.513,18.403h-7.853v17.134c0,2.538-3.094,3.807-6.187,3.807s-6.187-1.269-6.187-3.807V60.28H323.013z
		 M335.387,67.34v16.737h7.853c4.442,0,7.139-2.538,7.139-7.932v-0.872c0-5.394-2.697-7.932-7.139-7.932L335.387,67.34
		L335.387,67.34z"/>
	<path style="fill:#FC502A;" d="M406.457,56.552c2.618,0,3.728,2.856,3.728,5.473c0,3.015-1.348,5.632-3.728,5.632h-10.946v43.072
		c0,2.538-3.094,3.807-6.187,3.807s-6.187-1.269-6.187-3.807V67.657H372.19c-2.38,0-3.728-2.617-3.728-5.632
		c0-2.617,1.11-5.473,3.728-5.473H406.457z"/>
</g>
<path d="M290.01,161.487H106.958c-4.143,0-7.502,3.359-7.502,7.502s3.359,7.502,7.502,7.502H290.01c4.144,0,7.502-3.359,7.502-7.502
	C297.512,164.845,294.154,161.487,290.01,161.487z"/>
<path d="M290.01,204.679H106.958c-4.143,0-7.502,3.359-7.502,7.502s3.359,7.502,7.502,7.502H290.01c4.144,0,7.502-3.359,7.502-7.502
	C297.512,208.037,294.154,204.679,290.01,204.679z"/>
<path d="M290.01,257.502H106.958c-4.143,0-7.502,3.359-7.502,7.502s3.359,7.502,7.502,7.502H290.01c4.144,0,7.502-3.359,7.502-7.502
	S294.154,257.502,290.01,257.502z"/>
<path d="M290.01,300.694H106.958c-4.143,0-7.502,3.359-7.502,7.502s3.359,7.502,7.502,7.502H290.01c4.144,0,7.502-3.359,7.502-7.502
	C297.512,304.053,294.154,300.694,290.01,300.694z"/>
<path d="M398.446,161.487h-54.218c-4.144,0-7.502,3.359-7.502,7.502s3.358,7.502,7.502,7.502h54.218
	c4.144,0,7.502-3.359,7.502-7.502C405.948,164.845,402.59,161.487,398.446,161.487z"/>
<path d="M398.446,204.679h-54.218c-4.144,0-7.502,3.359-7.502,7.502s3.358,7.502,7.502,7.502h54.218
	c4.144,0,7.502-3.359,7.502-7.502C405.948,208.037,402.59,204.679,398.446,204.679z"/>
<path d="M398.446,257.502h-54.218c-4.144,0-7.502,3.359-7.502,7.502s3.358,7.502,7.502,7.502h54.218
	c4.144,0,7.502-3.359,7.502-7.502S402.59,257.502,398.446,257.502z"/>
<path d="M398.446,300.694h-54.218c-4.144,0-7.502,3.359-7.502,7.502s3.358,7.502,7.502,7.502h54.218
	c4.144,0,7.502-3.359,7.502-7.502C405.948,304.053,402.59,300.694,398.446,300.694z"/>
<path d="M290.01,374.837H106.958c-4.143,0-7.502,3.359-7.502,7.502s3.359,7.502,7.502,7.502H290.01c4.144,0,7.502-3.359,7.502-7.502
	S294.154,374.837,290.01,374.837z"/>
<path d="M290.01,418.03H106.958c-4.143,0-7.502,3.359-7.502,7.502s3.359,7.502,7.502,7.502H290.01c4.144,0,7.502-3.359,7.502-7.502
	C297.512,421.389,294.154,418.03,290.01,418.03z"/>
<path d="M446.829,1.44c-1.941-1.413-4.441-1.814-6.717-1.078l-34.988,11.263L370.135,0.362c-1.495-0.482-3.103-0.482-4.598,0
	l-34.983,11.263L295.571,0.362c-1.497-0.482-3.104-0.482-4.599,0L255.99,11.625L221.009,0.362c-1.496-0.482-3.103-0.482-4.599,0
	l-34.977,11.263L146.451,0.362c-1.494-0.481-3.102-0.481-4.598,0L106.87,11.626L71.888,0.362c-2.281-0.736-4.779-0.335-6.717,1.078
	c-1.938,1.412-3.084,3.665-3.084,6.063v489.452c0,8.296,6.749,15.045,15.045,15.045h357.736c8.295,0,15.044-6.749,15.044-15.045
	V7.504C449.913,5.106,448.767,2.852,446.829,1.44z M434.869,496.997l-357.777-0.041V17.801l27.48,8.848
	c1.496,0.482,3.104,0.482,4.598,0l34.983-11.263l34.981,11.263c1.496,0.482,3.103,0.482,4.599,0l34.977-11.263l34.982,11.263
	c1.495,0.482,3.104,0.482,4.598,0l34.983-11.263l34.984,11.263c1.497,0.482,3.102,0.482,4.599,0l34.983-11.263l34.988,11.263
	c1.495,0.482,3.102,0.482,4.597,0l27.485-8.848L434.869,496.997z"/>
<g>
</g>
<g>
</g>
<g>
</g>
<g>
</g>
<g>
</g>
<g>
</g>
<g>
</g>
<g>
</g>
<g>
</g>
<g>
</g>
<g>
</g>
<g>
</g>
<g>
</g>
<g>
</g>
<g>
</g>
</svg>
