<svg fill="none" height="64" viewBox="0 0 64 64" width="64" xmlns="http://www.w3.org/2000/svg"><g fill="rgb(0,0,0)"><path d="m28.0006 7.28571c0-2.07995.8715-3.95633 2.2694-5.28384-.0897-.00124-.1795-.00187-.2695-.00187-10.4934 0-19 8.5066-19 19v10c0 10.4934 8.5066 19 19 19 9.4727 0 17.3262-6.932 18.7645-16h-13.4787c-4.0238 0-7.2858-3.2619-7.2858-7.2857z"/><path d="m5.35349 37.1076c1.04517-.3574 2.18214.2002 2.53949 1.2453 3.10662 9.0861 11.82282 15.6471 22.10752 15.6471 10.2848 0 19.001-6.561 22.1076-15.6471.3574-1.0451 1.4943-1.6027 2.5395-1.2453 1.0452.3573 1.6027 1.4943 1.2454 2.5394-3.4477 10.0836-12.7496 17.485-23.8925 18.2817v2.0713c0 1.1046-.8954 2-2 2-1.1045 0-2-.8954-2-2v-2.0713c-11.1428-.7967-20.44467-8.1981-23.89239-18.2817-.35736-1.0451.20022-2.1821 1.24538-2.5394z"/><path clip-rule="evenodd" d="m54.0011 2c3.3137 0 6 2.68629 6 6v16c0 3.3137-2.6863 6-6 6h-16c-3.3137 0-6-2.6863-6-6v-16c0-3.31371 2.6863-6 6-6zm-13 13c-1.1046 0-2-.8954-2-2v-2c0-1.10457.8954-2 2-2s2 .89543 2 2v2c0 1.1046-.8954 2-2 2zm8-2c0 1.1046.8954 2 2 2s2-.8954 2-2v-2c0-1.10457-.8954-2-2-2s-2 .89543-2 2zm-8 5c-1.1046 0-2 .8954-2 2s.8954 2 2 2h10c1.1046 0 2-.8954 2-2s-.8954-2-2-2z" fill-rule="evenodd"/></g></svg>