<?xml version="1.0" encoding="iso-8859-1"?>
<!-- Generator: Adobe Illustrator 19.0.0, SVG Export Plug-In . SVG Version: 6.00 Build 0)  -->
<svg version="1.1" id="Capa_1" xmlns="http://www.w3.org/2000/svg" xmlns:xlink="http://www.w3.org/1999/xlink" x="0px" y="0px"
	 viewBox="0 0 512 512" style="enable-background:new 0 0 512 512;" xml:space="preserve">
<path style="fill:#57555C;" d="M271.035,406.35v60.14c0,8.419-6.614,15.035-15.035,15.035c-8.421,0-15.035-6.616-15.035-15.035
	v-60.14c0-8.421,6.614-15.035,15.035-15.035C264.42,391.315,271.035,397.93,271.035,406.35z"/>
<path style="fill:#3C3A41;" d="M271.035,406.35v60.14c0,8.419-6.614,15.035-15.035,15.035v-90.21
	C264.42,391.315,271.035,397.93,271.035,406.35z"/>
<path style="fill:#CAE8F9;" d="M256,30.475c-41.497,0-77.18,33.678-77.18,75.175v180.42c0,41.497,35.683,75.175,77.18,75.175
	s77.18-33.678,77.18-75.175V105.65C333.179,64.153,297.496,30.475,256,30.475z"/>
<g>
	<path style="fill:#1BD9DE;" d="M442.287,287.143c-5.873-5.873-5.873-15.388,0-21.261c25.563-25.548,39.643-59.538,39.643-95.687
		s-14.081-70.124-39.643-95.672c-5.873-5.873-5.873-15.388,0-21.261c5.873-5.873,15.388-5.873,21.261,0
		C494.792,84.492,512,126.015,512,170.195c0,44.195-17.208,85.718-48.453,116.948C457.673,293.015,448.159,293.015,442.287,287.143z
		"/>
	<path style="fill:#1BD9DE;" d="M399.736,244.591c-5.873-5.873-5.873-15.388,0-21.261c14.227-14.227,22.053-33.095,22.053-53.137
		s-7.826-38.909-22.053-53.122c-5.873-5.859-5.873-15.388,0-21.261s15.388-5.873,21.261,0c19.895,19.88,30.863,46.295,30.863,74.382
		c0,28.073-10.954,54.502-30.863,74.397C415.123,250.465,405.609,250.465,399.736,244.591z"/>
	<path style="fill:#1BD9DE;" d="M357.229,202.085c-5.873-5.873-5.873-15.388,0-21.261c2.849-2.849,4.419-6.621,4.419-10.63
		c0-3.993-1.571-7.767-4.419-10.616c-5.873-5.873-5.873-15.388,0-21.261c5.873-5.873,15.388-5.873,21.261,0
		c8.531,8.531,13.229,19.851,13.229,31.876c0,12.04-4.699,23.36-13.229,31.89C372.617,207.959,363.103,207.959,357.229,202.085z"/>
</g>
<g>
	<path style="fill:#1DE8F1;" d="M48.453,287.143C17.208,255.912,0,214.39,0,170.195c0-44.18,17.208-85.703,48.453-116.932
		c5.873-5.873,15.388-5.873,21.261,0s5.873,15.388,0,21.261c-25.563,25.548-39.643,59.523-39.643,95.672
		s14.081,70.139,39.643,95.687c5.873,5.873,5.873,15.388,0,21.261C63.84,293.015,54.326,293.015,48.453,287.143z"/>
	<path style="fill:#1DE8F1;" d="M91.003,244.591c-19.909-19.894-30.863-46.323-30.863-74.396c0-28.087,10.968-54.502,30.863-74.382
		c5.873-5.873,15.388-5.873,21.261,0c5.873,5.873,5.873,15.402,0,21.261c-14.227,14.212-22.053,33.08-22.053,53.122
		s7.826,38.909,22.053,53.137c5.873,5.873,5.873,15.388,0,21.261C106.39,250.465,96.877,250.465,91.003,244.591z"/>
	<path style="fill:#1DE8F1;" d="M133.509,202.085c-8.53-8.53-13.229-19.85-13.229-31.89c0-12.025,4.699-23.345,13.229-31.876
		c5.873-5.873,15.388-5.873,21.261,0c5.873,5.873,5.873,15.388,0,21.261c-2.849,2.849-4.419,6.621-4.419,10.616
		c0,4.008,1.571,7.782,4.419,10.63c5.873,5.873,5.873,15.388,0,21.261C148.897,207.959,139.383,207.959,133.509,202.085z"/>
</g>
<path style="fill:#A4D9F5;" d="M256,361.245V30.475c41.497,0,77.18,33.678,77.18,75.175v180.42
	C333.179,327.567,297.496,361.245,256,361.245z"/>
<path style="fill:#787780;" d="M393.319,286.07c0,74.573-62.747,135.315-137.32,135.315S118.68,360.643,118.68,286.07
	c0-8.421,6.614-15.035,15.035-15.035s15.035,6.614,15.035,15.035c0,58.035,49.215,105.245,107.25,105.245
	s107.25-47.21,107.25-105.245c0-8.421,6.614-15.035,15.035-15.035S393.319,277.649,393.319,286.07z"/>
<path style="fill:#57555C;" d="M393.319,286.07c0,74.573-62.747,135.315-137.32,135.315v-30.07
	c58.035,0,107.25-47.21,107.25-105.245c0-8.421,6.614-15.035,15.035-15.035S393.319,277.649,393.319,286.07z"/>
<path style="fill:#787780;" d="M333.179,466.49c0,8.419-6.614,15.035-15.035,15.035h-124.29c-8.421,0-15.035-6.616-15.035-15.035
	c0-8.421,6.614-15.035,15.035-15.035h124.29C326.565,451.455,333.179,458.07,333.179,466.49z"/>
<path style="fill:#57555C;" d="M333.179,466.49c0,8.419-6.614,15.035-15.035,15.035H256v-30.07h62.145
	C326.565,451.455,333.179,458.07,333.179,466.49z"/>
<g>
</g>
<g>
</g>
<g>
</g>
<g>
</g>
<g>
</g>
<g>
</g>
<g>
</g>
<g>
</g>
<g>
</g>
<g>
</g>
<g>
</g>
<g>
</g>
<g>
</g>
<g>
</g>
<g>
</g>
</svg>
