<?xml version="1.0" encoding="iso-8859-1"?>
<!-- Generator: Adobe Illustrator 19.0.0, SVG Export Plug-In . SVG Version: 6.00 Build 0)  -->
<svg version="1.1" id="Capa_1" xmlns="http://www.w3.org/2000/svg" xmlns:xlink="http://www.w3.org/1999/xlink" x="0px" y="0px"
	 viewBox="0 0 512.013 512.013" style="enable-background:new 0 0 512.013 512.013;" xml:space="preserve">
<g>
	<g>
		<g>
			<path d="M69.38,150.646c27.725-1.526,45.297-23.749,60.801-43.362c10.375-13.117,21.095-26.686,29.881-26.686
				c15.194,0,25.302,11.581,40.149,30.635c14.013,17.998,29.89,38.401,56.221,38.401c26.314,0,42.208-20.394,56.221-38.392
				c14.847-19.063,24.965-30.644,40.158-30.644c8.653,0,19.267,13.765,29.535,27.068c15.336,19.862,32.712,42.386,60.33,43.859
				c0.905,0.053,1.81,0.071,2.724,0.071c19.622,0,39.954-11.244,62.052-34.318c6.257-6.532,6.035-16.906-0.497-23.163
				c-6.55-6.266-16.915-6.035-23.163,0.497c-15.673,16.365-29.287,24.84-39.368,24.201c-12.602-0.674-24.556-16.179-36.129-31.168
				c-14.395-18.655-30.715-39.803-55.476-39.803c-32.304,0-50.994,23.988-66.01,43.273c-12.478,16.028-20.758,25.763-30.369,25.763
				c-9.62,0-17.891-9.736-30.369-25.763c-15.016-19.285-33.697-43.273-66.01-43.273c-24.663,0-41.09,20.785-55.591,39.129
				c-11.759,14.874-23.909,30.254-36.892,30.964c-9.957,0.719-23.882-7.499-39.537-23.349c-6.354-6.452-16.729-6.514-23.163-0.151
				c-6.443,6.354-6.514,16.729-0.151,23.163C27.802,140.973,49.092,151.977,69.38,150.646z"/>
			<path d="M69.388,307.01c27.725-1.526,45.305-23.775,60.801-43.406c10.375-13.135,21.104-26.713,29.881-26.713
				c15.185,0,25.302,11.581,40.14,30.653c14.013,17.998,29.899,38.41,56.23,38.41c26.314,0,42.208-20.403,56.221-38.41
				c14.847-19.063,24.965-30.653,40.158-30.653c8.644,0,19.267,13.765,29.526,27.068c15.336,19.87,32.712,42.394,60.33,43.868
				c0.905,0.044,1.81,0.071,2.724,0.071c19.622,0,39.954-11.271,62.07-34.354c6.257-6.532,6.017-16.906-0.515-23.163
				c-6.532-6.239-16.897-6.026-23.163,0.515c-15.682,16.383-29.295,24.636-39.368,24.219c-12.602-0.666-24.556-16.179-36.12-31.159
				c-14.395-18.664-30.715-39.812-55.476-39.812c-32.304,0-50.994,23.997-66.01,43.291c-12.487,16.028-20.758,25.772-30.369,25.772
				c-9.611,0-17.891-9.736-30.369-25.772c-15.016-19.294-33.697-43.291-66.01-43.291c-24.663,0-41.09,20.802-55.6,39.164
				c-11.75,14.883-23.909,30.272-36.883,30.991c-10.41,0.524-23.882-7.526-39.528-23.376c-6.354-6.452-16.72-6.505-23.172-0.16
				c-6.443,6.354-6.514,16.729-0.16,23.172C27.801,297.327,49.101,308.163,69.388,307.01z"/>
			<path d="M483.793,407.179c-15.664,16.374-29.038,24.885-39.368,24.219c-12.602-0.674-24.556-16.179-36.12-31.168
				c-14.395-18.655-30.715-39.803-55.476-39.803c-32.295,0-50.994,23.988-66.01,43.264c-12.478,16.019-20.758,25.754-30.369,25.754
				c-9.62,0-17.891-9.727-30.369-25.763c-15.025-19.276-33.697-43.255-66.01-43.255c-24.663,0-41.09,20.793-55.591,39.138
				c-11.759,14.883-23.917,30.263-36.901,30.973c-9.949,0.63-23.873-7.499-39.528-23.341c-6.354-6.452-16.729-6.514-23.163-0.151
				c-6.443,6.354-6.514,16.729-0.151,23.163c23.074,23.376,44.365,34.31,64.652,33.041c27.725-1.526,45.297-23.766,60.801-43.38
				c10.375-13.126,21.095-26.695,29.881-26.695c15.193,0,25.302,11.581,40.149,30.635c14.013,17.989,29.899,38.383,56.221,38.383
				c26.314,0,42.199-20.394,56.221-38.383c14.839-19.054,24.956-30.635,40.158-30.635c8.644,0,19.267,13.765,29.535,27.068
				c15.327,19.87,32.703,42.386,60.321,43.859c0.914,0.053,1.81,0.071,2.724,0.071c19.622,0,39.954-11.253,62.07-34.345
				c6.257-6.532,6.017-16.906-0.515-23.163C500.424,400.416,490.059,400.638,483.793,407.179z"/>
		</g>
	</g>
</g>
<g>
</g>
<g>
</g>
<g>
</g>
<g>
</g>
<g>
</g>
<g>
</g>
<g>
</g>
<g>
</g>
<g>
</g>
<g>
</g>
<g>
</g>
<g>
</g>
<g>
</g>
<g>
</g>
<g>
</g>
</svg>
