<svg id="Layer_1" enable-background="new 0 0 512 512" height="512" viewBox="0 0 512 512" width="512" xmlns="http://www.w3.org/2000/svg"><g><path d="m297.9 259.1c5.3 0 9.5-4.3 9.5-9.5s-4.3-9.5-9.5-9.5c-5.3 0-9.5 4.3-9.5 9.5s4.2 9.5 9.5 9.5z"/><path d="m287.8 212c8.4 0 15.8-5.4 18.4-13.4l13.1-40.7h-132l9.2 54.1z"/><path d="m351.3 28.4v58h55.5z"/><circle cx="231.6" cy="249.5" r="9.5"/><path d="m346.3 96.4c-2.8 0-5-2.2-5-5v-70.4h-242.9v442.5c0 5.1 2.8 9.5 7.4 11.8 4.6 2.2 9.8 1.6 13.8-1.6 0 0 0 0 .1-.1 8.5-6.7 20.3-6.7 28.7 0l18.1 14.4c4.8 3.8 11.5 3.8 16.3 0l18.1-14.4c4.2-3.4 9.3-5.1 14.4-5.1s10.2 1.7 14.4 5.1l18.1 14.4c4.8 3.8 11.5 3.8 16.3 0l18.1-14.4c8.5-6.8 20.3-6.8 28.8 0l18.1 14.4c4.8 3.8 11.5 3.8 16.3 0l18.1-14.4c8.5-6.8 20.3-6.8 28.8 0 4 3.2 9.2 3.8 13.8 1.6s7.4-6.6 7.4-11.8v-367zm-188.1 11.7c12 0 22.1 8.6 24.1 20.4l3.3 19.4h140.5c1.6 0 3.1.8 4 2.1s1.2 3 .7 4.5l-15.2 47.2c-3.9 12.2-15.1 20.4-27.9 20.4h-89.6l1.7 10.3c1.1 6.5 6.4 11.3 12.8 12 2.3-8.2 9.9-14.3 18.8-14.3 9 0 16.5 6.1 18.8 14.4h28.6c2.3-8.3 9.8-14.4 18.8-14.4 10.8 0 19.5 8.8 19.5 19.5s-8.8 19.5-19.5 19.5c-9.1 0-16.8-6.3-18.9-14.7h-28.5c-2.2 8.5-9.8 14.7-18.9 14.7s-16.8-6.3-18.9-14.8c-11.3-.7-20.6-9-22.6-20.3l-17.6-103.8c-1.2-7-7.2-12-14.3-12-2.8 0-5-2.2-5-5 .3-2.8 2.6-5.1 5.3-5.1zm0 200.6h110.4c2.8 0 5 2.2 5 5s-2.2 5-5 5h-110.4c-2.8 0-5-2.2-5-5s2.3-5 5-5zm195.6 95.1h-195.6c-2.8 0-5-2.2-5-5s2.2-5 5-5h195.5c2.8 0 5 2.2 5 5s-2.2 5-4.9 5zm0-42.5h-195.6c-2.8 0-5-2.2-5-5s2.2-5 5-5h195.5c2.8 0 5 2.2 5 5s-2.2 5-4.9 5z"/></g></svg>