<svg height="480pt" viewBox="-20 0 480 480" width="480pt" xmlns="http://www.w3.org/2000/svg"><path d="m412.207031 267.679688-36.207031-43.679688v256h56v-159.648438c0-19.375-7.035156-38.089843-19.792969-52.671874zm0 0" fill="#fec9a3"/><path d="m104 56h272v352h-272zm0 0" fill="#4398d1"/><path d="m104 384v24h272v-296zm0 0" fill="#3e8cc7"/><path d="m104 440c0 17.671875 14.328125 32 32 32h208c17.671875 0 32-14.328125 32-32v-32h-272zm0 0" fill="#d6d9db"/><path d="m344 8h-208c-17.671875 0-32 14.328125-32 32v16h272v-16c0-17.671875-14.328125-32-32-32zm0 0" fill="#d6d9db"/><path d="m232 432h16v16h-16zm0 0" fill="#a0a1a3"/><g fill="#126099"><path d="m320 184c-3.667969 0-6.867188 2.496094-7.761719 6.054688l-6.476562 25.945312h-137.761719c-2.464844 0-4.789062 1.136719-6.308594 3.078125-1.515625 1.941406-2.050781 4.476563-1.453125 6.867187l16 64c.894531 3.558594 4.09375 6.054688 7.761719 6.054688h104c4.417969 0 8 3.582031 8 8s-3.582031 8-8 8h-112v16h112c9.804688.023438 18.632812-5.929688 22.28125-15.027344 3.652344-9.097656 1.386719-19.503906-5.714844-26.261718l15.203125-60.800782 6.476563-25.910156h17.753906v-16zm-22.246094 64h-28.691406l2-16h30.691406zm-70.691406 0-2-16h29.875l-2 16zm23.875 16-2 16h-17.875l-2-16zm-42-32 2 16h-28.691406l-4-16zm-18.691406 48-4-16h26.691406l2 16zm74.816406 0 2-16h26.691406l-4 16zm0 0"/><path d="m216 352c0 8.835938-7.164062 16-16 16s-16-7.164062-16-16 7.164062-16 16-16 16 7.164062 16 16zm0 0"/><path d="m296 352c0 8.835938-7.164062 16-16 16s-16-7.164062-16-16 7.164062-16 16-16 16 7.164062 16 16zm0 0"/><path d="m240 192c2.121094 0 4.15625-.84375 5.65625-2.34375l24-24-11.3125-11.3125-10.34375 10.34375v-28.6875h-16v28.6875l-10.34375-10.34375-11.3125 11.3125 24 24c1.5 1.5 3.535156 2.34375 5.65625 2.34375zm0 0"/></g><path d="m308 260c-11.097656-10.742188-28.757812-10.597656-39.679688.320312-10.917968 10.921876-11.0625 28.582032-.320312 39.679688l68 68-6.585938 11.527344c-15.339843 26.84375-12.726562 60.332031 6.585938 84.472656v16h56v-136zm0 0" fill="#fec9a3"/><path d="m320.199219 408h-15.65625c-2.460938 20.03125 3.234375 40.210938 15.800781 56v8h15.65625v-8c-12.566406-15.789062-18.261719-35.96875-15.800781-56zm0 0" fill="#c7cacc"/><path d="m184 132c.011719-29.257812-12.824219-57.042969-35.113281-76h-44.886719v173.992188c46.5625-9.503907 80.007812-50.46875 80-97.992188zm0 0" fill="#3e8cc7"/><path d="m184 120c0 48.601562-39.398438 88-88 88s-88-39.398438-88-88 39.398438-88 88-88 88 39.398438 88 88zm0 0" fill="#fdb62f"/><path d="m168 120c0 39.765625-32.234375 72-72 72s-72-32.234375-72-72 32.234375-72 72-72 72 32.234375 72 72zm0 0" fill="#ffa230"/><path d="m128 134.671875c.03125-12.390625-8.9375-22.972656-21.167969-24.976563l-19.03125-3.199218c-4.738281-.839844-8.054687-5.148438-7.660156-9.941406.394531-4.792969 4.371094-8.5 9.179687-8.554688h30.679688v-16h-16v-8h-16v8.136719c-12.910156.632812-23.257812 10.90625-23.988281 23.808593-.726563 12.90625 8.402343 24.277344 21.15625 26.359376l19.03125 3.199218c4.738281.839844 8.054687 5.148438 7.660156 9.941406-.394531 4.792969-4.371094 8.5-9.179687 8.554688h-30.679688v16h16v8h16v-8.136719c13.421875-.683593 23.964844-11.75 24-25.191406zm0 0" fill="#fd6d2f"/><path d="m136 16h208c13.253906 0 24 10.746094 24 24v8h-176v16h176v244.6875l-54.34375-54.34375c-.257812-.253906-.566406-.433594-.800781-.679688l6.9375-27.71875 6.453125-25.945312h17.753906v-16h-24c-3.667969 0-6.867188 2.496094-7.761719 6.054688l-6.476562 25.945312h-137.761719c-2.464844 0-4.789062 1.136719-6.308594 3.078125-1.515625 1.941406-2.050781 4.476563-1.453125 6.867187l16 64c.894531 3.558594 4.09375 6.054688 7.761719 6.054688h71.617188c1.691406 3.566406 3.964843 6.832031 6.726562 9.65625l6.34375 6.34375h-92.6875v16h108.6875l41.335938 41.335938-3.550782 6.214843c-4.328125 7.621094-7.433594 15.867188-9.207031 24.449219h-201.265625v-168h-16v208c.027344 22.082031 17.917969 39.972656 40 40h176v-16h-176c-13.253906 0-24-10.746094-24-24v-24h199.617188c-.285157 18.253906 5.476562 36.089844 16.382812 50.726562v13.273438h16v-16c0-1.816406-.617188-3.582031-1.753906-5-17.359375-21.539062-19.699219-51.535156-5.886719-75.503906l6.585937-11.527344c1.777344-3.125 1.25-7.054688-1.289062-9.601562l-68-68c-7.710938-7.957032-7.609375-20.628907.222656-28.460938 7.835938-7.835938 20.507813-7.9375 28.464844-.226562l84 84 11.3125-11.3125-13.65625-13.679688v-284.6875c-.027344-22.082031-17.917969-39.9726562-40-40h-208c-3.371094 0-6.726562.421875-9.992188 1.257812l4 15.503907c1.957032-.503907 3.972657-.761719 5.992188-.761719zm112.9375 264h-17.875l-2-16h21.875zm4-32h-25.875l-2-16h29.875zm-44-16 2 16h-28.691406l-4-16zm-22.691406 32h26.691406l2 16h-24.691406zm82.65625-14.761719 2.160156-17.238281h30.691406l-3.355468 13.425781c-9.921876-3.011719-20.660157-1.621093-29.496094 3.8125zm0 0"/><path d="m232 432h16v16h-16zm0 0"/><path d="m424 320.351562v159.648438h16v-159.648438c.019531-21.234374-7.652344-41.761718-21.601562-57.777343l-9.679688-11.679688-12.3125 10.210938 9.808594 11.839843c11.472656 13.128907 17.792968 29.972657 17.785156 47.40625zm0 0"/><path d="m216 352c0 8.835938-7.164062 16-16 16s-16-7.164062-16-16 7.164062-16 16-16 16 7.164062 16 16zm0 0"/><path d="m296 352c0 8.835938-7.164062 16-16 16s-16-7.164062-16-16 7.164062-16 16-16 16 7.164062 16 16zm0 0"/><path d="m232 136v28.6875l-10.34375-10.34375-11.3125 11.3125 24 24c3.125 3.121094 8.1875 3.121094 11.3125 0l24-24-11.3125-11.3125-10.34375 10.34375v-28.6875zm0 0"/><path d="m96 216c53.019531 0 96-42.980469 96-96s-42.980469-96-96-96-96 42.980469-96 96c.0585938 52.996094 43.003906 95.941406 96 96zm0-176c44.183594 0 80 35.816406 80 80s-35.816406 80-80 80-80-35.816406-80-80c.046875-44.164062 35.835938-79.953125 80-80zm0 0"/><path d="m85.167969 122.304688 19.03125 3.199218c4.738281.839844 8.054687 5.148438 7.660156 9.941406-.394531 4.792969-4.371094 8.5-9.179687 8.554688h-30.679688v16h16v8h16v-8.136719c12.910156-.632812 23.257812-10.90625 23.988281-23.808593.726563-12.90625-8.402343-24.277344-21.15625-26.359376l-19.03125-3.199218c-4.738281-.839844-8.054687-5.148438-7.660156-9.941406.394531-4.792969 4.371094-8.5 9.179687-8.554688h30.679688v-16h-16v-8h-16v8.136719c-12.910156.632812-23.257812 10.90625-23.988281 23.808593-.726563 12.90625 8.402343 24.277344 21.15625 26.359376zm0 0"/></svg>