<svg id="Layer_1" enable-background="new 0 0 32 32" height="512" viewBox="0 0 32 32" width="512" xmlns="http://www.w3.org/2000/svg"><path d="m2 31c.081 0 .161-.01.241-.029l7.346-1.825c.176-.044.337-.135.466-.264l19.511-19.511c1.912-1.912 1.912-5.022 0-6.935-1.912-1.912-5.022-1.912-6.935 0l-19.51 19.511c-.128.128-.22.289-.264.466l-1.826 7.346c-.084.341.016.7.264.948.19.189.445.293.707.293zm22.043-27.149c1.133-1.133 2.975-1.133 4.106 0 1.132 1.132 1.132 2.975 0 4.106l-2.505 2.505-4.107-4.106zm-19.314 19.314 15.395-15.395 4.107 4.106-15.396 15.395-5.464 1.357z"/></svg>