<svg id="microphone" viewBox="0 0 24 24" xmlns="http://www.w3.org/2000/svg"><path d="m12 1.25c-2.62 0-4.75 2.13-4.75 4.75v6c0 2.62 2.13 4.75 4.75 4.75s4.75-2.13 4.75-4.75v-6c0-2.62-2.13-4.75-4.75-4.75z"/><path d="m12 22.75c-.41 0-.75-.34-.75-.75v-3c0-.41.34-.75.75-.75s.75.34.75.75v3c0 .41-.34.75-.75.75z"/><path d="m16 22.75h-8c-.41 0-.75-.34-.75-.75s.34-.75.75-.75h8c.41 0 .75.34.75.75s-.34.75-.75.75z"/><path d="m12 19.75c-4.27 0-7.75-3.48-7.75-7.75 0-.41.34-.75.75-.75s.75.34.75.75c0 3.45 2.8 6.25 6.25 6.25s6.25-2.8 6.25-6.25c0-.41.34-.75.75-.75s.75.34.75.75c0 4.27-3.48 7.75-7.75 7.75z"/><path d="m19 9.25c-.41 0-.75-.34-.75-.75v-4c0-.41.34-.75.75-.75s.75.34.75.75v4c0 .41-.34.75-.75.75z"/><path d="m22 8.25c-.41 0-.75-.34-.75-.75v-2c0-.41.34-.75.75-.75s.75.34.75.75v2c0 .41-.34.75-.75.75z"/><path d="m5 9.25c-.41 0-.75-.34-.75-.75v-4c0-.41.34-.75.75-.75s.75.34.75.75v4c0 .41-.34.75-.75.75z"/><path d="m2 8.25c-.41 0-.75-.34-.75-.75v-2c0-.41.34-.75.75-.75s.75.34.75.75v2c0 .41-.34.75-.75.75z"/></svg>